<svg version="1" xmlns="http://www.w3.org/2000/svg" width="480" height="480" viewBox="0 0 360.000000 360.000000"><path d="M0 180v180h360V0H0v180zM127.6 73c17.7 4.4 33.1 14.7 60 39.8l16.2 15.1 4.1-5.2c12.9-16 30.9-24.6 51.6-24.7 15.4 0 27.6 5.4 34.2 15.4 4.3 6.3 5.6 11.6 5.1 20.1-.8 12.1-7.9 22.5-19.1 28-17.8 8.6-40.4 4.5-62.2-11.4-3.8-2.8-7.3-5.1-7.6-5.1-1.3 0-9.7 21.5-14.7 37.6-4.9 15.5-12.2 43.7-12.2 46.7 0 4.6 10.5-4.1 15-12.3 1.9-3.5 3-4.8 3-3.4 0 3.7-5 12.1-10 16.8l-5 4.7 2.4 7.2c7.4 21.8 5.5 41.3-4.2 45.4-7.5 3.1-15 .3-19-7.2-4.2-7.7.1-42 10-81 5.3-20.7 11.6-39.1 18.4-53.4l5.4-11.4-14.2-13.6c-31.5-30.3-47.2-40.1-67.2-41.7C99 77.8 85.1 85 78.1 99.9c-3.5 7.6-3.6 19.2-.2 26.3 2.6 5.3 7.7 10.3 12.7 12.4 4.9 2.1 14.7 1.8 19.2-.5 8.1-4.2 11.7-10.7 11.7-21.2-.1-7.3.1-7.6 2-7 2.5 1 5.5 6.7 5.5 10.7 0 19.6-21.9 32.5-44.1 26.1-18.5-5.4-28.6-26.7-21.9-46.1 7.7-22.5 36.3-34.7 64.6-27.6z"/><path d="M245.4 109.8c-2.8 1-7.3 3.2-10.1 5-5.1 3.3-15.1 13.2-19.1 18.9l-2.3 3.2 5.5 4.3c13.2 10.3 24.7 15.6 36.4 16.5 19.1 1.4 32.2-8.7 32.2-24.9-.1-10.1-5-18.1-13.9-22.5-5.3-2.6-21.9-2.9-28.7-.5zM178.6 254.7c-3.1 19.3-3.5 27.1-1.5 28.3 3.2 2 5.6-3.5 7-15.9 1.1-10.1 0-26.4-1.9-28.3-.5-.5-2.1 6.3-3.6 15.9z"/></svg>