<svg xmlns="http://www.w3.org/2000/svg" version="1" width="238" height="250" viewBox="0 0 238 250" preserveAspectRatio="xMidYMid meet">
  <metadata>
    
  </metadata>
  <g transform="translate(0.000000,250.000000) scale(0.100000,-0.100000)" fill="#b1a2cd" stroke="none">
    <path d="M1075 2244c-11-2-45-9-75-15-82-17-138-50-207-122-69-72-95-121-124-242-32-130-34-287-10-561 12-132 21-260 19-284l-3-43-78-19c-44-10-92-26-109-36-43-25-105-123-117-185-11-54-61-412-61-434 0-10 183-13 880-13 484 0 880 2 880 4 0 2-13 105-30 228-34 256-49 314-92 364-47 53-90 72-252 108l-29 7 7 127c3 70 9 226 12 347 7 237-3 335-47 468-57 175-237 295-449 303-52 1-104 1-115-2zm266-400c37-40 191-114 236-114 46 0 44-93-5-194-16-33-37-82-46-107-42-117-150-233-261-285-42-20-89-36-105-36-97-3-297 189-331 317-6 22-19 49-29 60-30 33-51 83-56 133-7 68 1 76 70 63 69-13 183 1 263 31 48 18 203 123 218 149 10 15 20 11 46-17zm-270-739c57-32 109-32 188 1 35 14 65 23 68 20 3-2 7-22 10-43 4-37 1-41-76-118l-81-80-85 85c-82 83-84 86-79 123 4 20 8 37 9 37 2 0 23-11 46-25z"/>
  </g>
</svg>
