<svg xmlns="http://www.w3.org/2000/svg" style="display: none;"><symbol id="halloween-october-31-calendar-page-sketch" viewBox="0 0 194.721 194.721"><title>halloween-october-31-calendar-page-sketch</title><path d="M191.791,113.42c-1.691-28.352,2.937-56.322-0.871-84.683c-0.139-1.037-0.758-1.879-1.896-1.897 c-13.329-0.197-26.65-1.16-39.956-0.937c0.508-0.112,0.974-0.398,1.114-1.001c2.19-9.326-8.063-14.877-15.694-16.099 c-9.298-1.489-21.258,1.758-26.788,9.874c-1.478,2.168-2.368,4.727-2.786,7.474c-4.234-2.81-11.893-1.58-16.34-1.279 c-4.543,0.307-9.064,0.855-13.584,1.396c1.024-7.252-4.703-12.767-11.872-13.786c-9.564-1.359-20.081,3.456-26.123,10.754 c-2.029,2.451-3.108,5.162-3.585,7.951c-3.665-1.285-9.178-0.615-12.709-0.801c-6.23-0.328-12.598-0.527-18.7,0.934 c-0.516-0.235-1.1-0.095-1.413,0.422c-0.719,0.484-0.736,1.39-0.281,2.034c-1.872,50.139,7.044,99.755,0.748,149.915 c-0.131,1.042,0.955,1.853,1.881,1.881c32.881,1.022,65.563-1.335,98.351-3.519c29.03-1.935,58.274,1.771,87.312,2.107 c-0.174,2.188,3.185,3.046,3.673,0.743C197.327,161.119,193.219,137.386,191.791,113.42z M181.364,30.519 c5.113,0.181,7.403,6.722,8.266,15.187c-5.802-4.276-10.47-9.651-15.783-14.53c-0.525-0.483-1.258,0.252-0.78,0.781 c3.03,3.365,6.091,6.705,9.112,10.079c2.025,2.261,4.646,5.915,7.708,6.882c0.456,7.623-0.013,16.262-0.533,23.12 c-1.786-1.327-4.169-1.891-6.7-2.118c-2.631-7.19-10.083-14.218-14.846-19.787c-5.551-6.493-11.223-13.276-18.16-18.284 c-0.452-0.327-1.028,0.421-0.597,0.773c12.306,10.028,20.089,25.123,30.24,37.154c-2.164,0.01-4.312,0.151-6.196,0.205 c0.544-0.225,0.928-0.847,0.55-1.438c-4.604-7.197-11.366-13.715-16.679-20.486c-4.66-5.941-10.064-14.461-17.216-17.636 c-0.506-0.225-1.041,0.359-0.615,0.797c6.247,6.41,11.896,12.846,17.278,20.06c4.474,5.995,9.281,14.815,15.812,18.685 c0.055,0.032,0.11,0.01,0.165,0.03c-0.297,0.005-0.617,0.018-0.896,0.014c-1.698-0.018-3.395,0.006-5.091,0.009 c0.105-0.125,0.225-0.236,0.285-0.412c0.21-0.602,0.107-0.885-0.124-1.49c-0.213-0.559-0.843-0.763-1.307-0.551 c-0.019-0.092-0.229-0.312-0.877-1.025c-0.883-0.971-1.7-2.002-2.524-3.023c-1.992-2.472-3.998-4.9-6.059-7.315 c-6.974-8.174-13.518-16.703-21.172-24.264c0.499-0.867,1.082-1.657,1.614-2.574C151.306,29.353,166.306,29.988,181.364,30.519z M158.053,68.197c-4.608-4.428-9.156-8.584-13.295-13.504c-3.872-4.601-7.539-9.41-11.659-13.797 c-0.009-2.154,0.125-4.308,0.536-6.424c0.057-0.288,0.156-0.525,0.237-0.783c7.753,8.701,14.304,18.368,22.095,27.015 c1.822,2.022,4.664,7.716,7.794,9.315c-1.996,0.01-3.992,0.002-5.989,0.01C158.382,69.644,158.71,68.827,158.053,68.197z M111.693,19.752c4.855-5.949,13.462-7.717,20.724-7.372c8.515,0.405,12.737,4.797,14.787,12.522 c0.158,0.595,0.646,0.892,1.172,1.006c-4.216,0.084-8.431,0.312-12.644,0.707c-0.155-0.05-0.296-0.128-0.482-0.116 c-5.088,0.33-5.703,8.581-5.917,12.327c-0.218,3.83-0.787,11.117,2.459,13.888c0.076,0.064,0.157,0.076,0.236,0.114 C115.301,60.425,101.538,32.192,111.693,19.752z M104.4,29.569c0.085,0.017,0.152-0.032,0.236-0.028 c-0.208,16.513,14.758,36.904,30.138,24.899c1.212-0.946-0.298-2.728-1.561-2.102c0.032-0.084,0.083-0.154,0.094-0.253 c0.292-2.579,0.065-5.143-0.103-7.762c3.259,4.055,6.464,8.149,9.692,12.231c3.801,4.802,8.042,10.466,13.505,13.477 c-3.249,0.016-6.499-0.011-9.748,0.016c0.496-0.533,0.621-1.518-0.145-2.089c-4.738-3.533-8.117-7.915-12.185-12.118 c-0.539-0.557-1.551,0.186-1.09,0.841c3.36,4.773,7.112,9.88,11.843,13.378c-2.534,0.02-5.067,0.041-7.602,0.056 c-0.046-0.107-0.027-0.22-0.127-0.319c0.63,0.63,0.005-0.089-0.173-0.377c-0.381-0.618-0.831-1.111-1.336-1.631 c-1.391-1.431-2.85-2.797-4.279-4.191c-1.427-1.393-2.857-2.781-4.282-4.175c-0.364-0.356-0.92-0.971-1.428-1.111 c-0.112-0.031-0.278-0.038-0.437-0.032c-0.125-0.116-0.269-0.257-0.441-0.259c-0.1-0.001-0.183,0.068-0.212,0.161 c-0.125,0.398,0.119,1.333,0.409,1.767c1.062,1.598,2.484,2.999,3.784,4.402c1.5,1.618,2.979,3.271,4.543,4.828 c0.317,0.316,0.636,0.641,0.967,0.95c-2.618,0.008-5.235,0.054-7.853,0.036c0.146-0.012,0.295,0.001,0.441-0.026 c0.928-0.172,1.105-1.624,0.266-2.033c-7.465-3.634-12.733-13.411-17.466-19.794c-4.743-6.399-9.349-14.109-15.268-19.717 C97.849,28.636,101.119,28.902,104.4,29.569z M81.654,29.37c7.46,6.992,13.321,15.251,19.226,23.551 c3.901,5.484,8.111,12.86,14.008,16.38c0.883,0.527,2.165-0.581,1.491-1.491c-5.087-6.857-11.009-13.188-16.15-20.075 c-4.937-6.613-10.086-13.207-16.377-18.592c2.789-0.28,5.578-0.454,8.369-0.514c7.28,8.349,12.889,18.295,19.453,27.192 c2.647,3.588,8.351,13.618,13.936,14.329c-3.391-0.029-6.779-0.051-10.171-0.154c-2.473-0.075-4.932-0.057-7.397-0.094 c0.4-0.508,0.509-1.242-0.074-1.853c-6.336-6.647-12.564-13.384-18.673-20.242c-4.699-5.277-9.742-13.516-15.815-17.49 C76.207,30.011,78.93,29.671,81.654,29.37z M85.729,48.025c6.391,7.508,12.935,14.959,19.995,21.847 c-3.104-0.034-6.215-0.116-9.314-0.118c0.174-0.328,0.304-0.76,0.344-1.395c0.084-1.333-1.817-1.444-2.213-0.3 c0.888-2.566-11.772-16.307-13.394-18.448C76,42.814,70.562,36.386,63.868,31.103c2.668-0.101,5.325-0.343,7.978-0.622 C74.305,36.93,81.334,42.861,85.729,48.025z M54.846,55.412c2.303,3.37,4.898,6.535,7.493,9.683 c0.833,1.011,2.261,3.142,3.845,4.823c-1.658,0.022-3.315,0.042-4.977,0.063c-0.362-1.056-1.174-1.798-1.92-2.632 c-1.449-1.62-2.88-3.256-4.322-4.882c-2.084-2.35-4.175-4.555-6.495-6.598c2.125,0.236,4.201-0.202,5.968-1.414 c0.003,0.001-0.001,0.003,0.001,0.004c0.165,0.091,0.244,0.525,0.406,0.203C54.733,54.891,54.694,55.188,54.846,55.412z M64.166,63.27c-2.657-2.943-5.119-6.188-8.154-8.756c-0.188-0.159-0.469-0.292-0.721-0.191c0.011-0.005-0.163-0.125-0.341-0.237 c1.026-0.826,1.935-1.932,2.65-3.38c0.708-0.388,1.139-1.214,0.576-2.087c-1.011-1.57-1.389-3.159-1.382-4.771 c3.564,5.077,7.52,9.884,11.225,14.853c2.182,2.924,4.314,5.863,6.564,8.741c0.615,0.787,1.235,1.685,1.997,2.374 c-2.008,0.022-4.014,0.022-6.024,0.047c-0.501-0.62-1.161-1.141-1.727-1.676C67.191,66.636,65.676,64.944,64.166,63.27z M57.095,41.315c0.211-0.954,0.509-1.916,0.871-2.89c0.267-0.717,0.594-1.334,0.939-1.926c3.8,5.879,8.292,11.461,12.427,17.075 c4.049,5.495,8.256,11.832,13.658,16.195c-1.778,0.013-3.559,0.006-5.336,0.023c0.007-0.257-0.053-0.522-0.262-0.766 C71.693,60.043,64.72,50.403,57.095,41.315z M73.386,51.989c-4.272-5.464-8.33-12.094-13.589-16.793 c0.825-1.084,1.782-2.042,2.782-3.015c9.926,9.144,17.572,20.602,25.449,31.482c0.525,0.726,3.459,4.545,5.784,6.091 c-1.8,0.003-3.602-0.01-5.401-0.001c0.009-0.321-0.09-0.647-0.336-0.918C83.033,63.293,78.017,57.911,73.386,51.989z M42.5,22.901 c4.622-4.375,11.37-6.601,17.622-6.819c7.781-0.271,10.511,4.006,11.114,10.608c-3.575,0.409-7.153,0.78-10.748,0.972 c-1.251-0.26-2.148,1.317-1.845,2.453c-1.803,1.964-3.19,4.724-3.898,6.438c-1.685,4.077-2.848,9.884,0.472,13.45 c-6.196,4.496-11.657,0.919-15.62-5.698C35.116,36.826,36.278,28.792,42.5,22.901z M20.7,34.161 c3.433,0.166,8.744,1.543,12.451,0.614c0.148,5.502,2.528,11.075,6.002,15.537c2.134,2.74,5.001,4.562,7.903,5.275 c-0.012,0.121,0.019,0.251,0.118,0.375c2.101,2.608,3.987,5.558,6.074,8.224c1.23,1.571,2.461,3.141,3.728,4.683 c0.312,0.379,0.615,0.773,0.931,1.152c-1.629,0.019-3.253,0.043-4.886,0.059c-4.553,0.045-9.039-0.094-13.499-0.243 c0.448-0.311,0.662-0.943,0.201-1.472c-5.195-5.945-10.158-11.544-14.55-18.183c-3.778-5.711-7.58-11.516-12.564-16.26 c-0.004-0.004-0.009-0.001-0.013-0.005C15.304,33.933,18.012,34.03,20.7,34.161z M2.82,34.387c2.953-0.35,5.933-0.478,8.915-0.483 c-0.26,0.225-0.374,0.625-0.076,0.968c5.354,6.176,9.409,13.131,13.747,20.018c3.325,5.28,7.253,11.868,12.923,14.916 c-2.918-0.096-5.833-0.205-8.732-0.228c0.224-0.21,0.426-0.487,0.576-0.926c0.341-1.001-1.146-1.934-1.833-1.068 c0.534-0.672-7.37-10.909-8.663-12.646c-4.771-6.406-9.45-13.015-14.308-19.306c-0.16-0.207-0.605-0.264-0.655,0.085 c-0.527,3.738,3.249,7.759,5.275,10.529c3.191,4.363,6.42,8.66,9.418,13.159c0.552,0.829,5.14,8.436,8.254,10.169 c-2.47,0.008-4.937,0.054-7.405,0.214c0.011-0.19,0.007-0.384-0.111-0.559c-4.852-7.17-10.149-14.76-16.01-21.171 c-0.151-0.165-0.33-0.207-0.508-0.192C3.357,43.371,3.086,38.875,2.82,34.387z M3.755,49.998c2.432,3.93,5.134,7.743,7.722,11.56 c1.938,2.857,3.792,6.063,6.377,8.394c-1.562,0.143-3.125,0.32-4.69,0.557c0.011-0.191,0.031-0.383-0.076-0.584 c-2.443-4.585-5.867-8.499-8.015-13.308c-0.199-0.446-0.6-0.501-0.943-0.353C4.004,54.175,3.88,52.088,3.755,49.998z M4.349,59.939c0.87,2.218,2.171,4.337,3.35,6.307c0.991,1.655,1.997,3.205,3.3,4.592c-1.852,0.34-3.706,0.743-5.568,1.259 c-0.139,0.038-0.239,0.106-0.343,0.17C4.85,68.154,4.596,64.05,4.349,59.939z M189.239,180.426 c-0.077-0.01-0.134-0.045-0.215-0.046c-22.4-0.237-44.755-1.962-67.152-2.42c-28.725-0.587-57.5,3.064-86.205,4.024 c-13.915,0.465-30.914,4.98-29.097-14.022c1.52-15.898,1.169-31.979,0.713-47.917c-0.435-15.213-1.201-30.442-2.071-45.666 c0.246,0.139,0.541,0.214,0.89,0.149c15.732-2.937,31.088-1.258,46.92-0.692c18.05,0.645,36.176-1.101,54.27-0.52 c15.34,0.493,30.569,0.802,45.927,0.603c8.133-0.105,26.506-3.206,34.25,0.843c0.572,0.299,1.188,0.195,1.68-0.104 c-0.311,3.817-0.598,6.864-0.667,8.501C187.142,115.19,194.915,148.793,189.239,180.426z"/><path d="M69.55,112.319c7.25-8.333,13.78-17.034,19.205-26.739c0.675-1.208-0.166-2.863-1.62-2.823 c-11.346,0.312-22.544,2.193-33.884,2.625c-0.459,0.017-0.973,0.243-1.186,0.68l-0.029,0.059c-0.043,0.089-0.017,0.168-0.04,0.256 c-0.043,0.123-0.058,0.241-0.06,0.378c0.002,0.137,0.018,0.256,0.06,0.378c0.023,0.087-0.003,0.167,0.04,0.256l0.029,0.059 c0.213,0.438,0.726,0.663,1.186,0.68c10.207,0.389,20.266-0.971,30.441-1.448c-5.516,9.192-11.936,17.598-19.129,25.618 c-1.162,1.297-0.312,3.093,1.346,3.245c12.406,1.146,26.945,8.488,28.318,22.37c2.095,21.176-33.795,24.355-34.28,1.2 c-0.049-2.35-3.579-2.346-3.643,0c-0.561,21.086,23.033,25.197,36.007,12.411C109.816,134.278,86.651,116.012,69.55,112.319z"/><path d="M124.571,130.013c0.139-14.773,1.539-31.334-1.667-45.877c-0.39-1.765-2.527-1.609-3.424-0.447 c-5.135,6.656-11.338,12.237-15.854,19.347c-0.982,1.547,1.353,2.795,2.396,1.401c4.133-5.514,9.085-10.096,13.758-15.112 c-0.411-4.021-0.428-4.48-0.048-1.377c0.208,1.821,0.292,3.659,0.401,5.487c0.489,8.136,0.559,16.305,0.632,24.453 c0.078,8.615-0.003,17.232-0.248,25.844c-0.072,2.554,0.887,11.011-0.54,13.123c-0.763,1.129,0.695,2.37,1.776,1.776 C127.294,155.592,124.525,134.898,124.571,130.013z"/><path d="M49.259,67.32C40.353,56.724,32.77,44.721,22.658,35.195c-0.825-0.777-1.982,0.398-1.235,1.235 C30.747,46.876,38.071,58.802,47.18,69.4C48.422,70.844,50.467,68.758,49.259,67.32z"/><path d="M188.896,65.484c-9.244-12.131-19.7-23.676-29.986-34.935c-0.36-0.394-0.889,0.106-0.692,0.534 c2.64,5.746,7.274,10.615,11.294,15.418c5.671,6.776,11.452,13.457,16.808,20.49C187.468,68.501,190.063,67.015,188.896,65.484z"/><path d="M189.868,56.545c-0.928-1.844-2.915-3.192-4.321-4.676c-2.576-2.719-4.919-5.668-7.286-8.566 c-3.296-4.036-7.38-11.009-12.429-13.012c-0.479-0.19-0.944,0.459-0.666,0.866c3.563,5.217,8.206,10.004,12.088,15.025 c2.602,3.365,7.035,11.389,11.771,11.835C189.816,58.091,190.169,57.146,189.868,56.545z"/></symbol><symbol id="placeholder-sketch" viewBox="0 0 190.632 190.633"><title>placeholder-sketch</title><path d="M150.269,25.058C130.766-0.496,93.244-6.071,65.109,6.353c-22.487,9.93-41.687,42.744-31.043,66.81 c0.008,0.06-0.012,0.11,0,0.171c7.56,41.412,29.403,80.53,51.989,115.481c1.085,1.68,3.248,2.371,5.035,1.32 c28.259-16.616,39.414-50.667,50.445-79.637C151.979,83.08,171.091,52.344,150.269,25.058z M148.905,36.794 c-3.62-4.226-8.319-7.658-12.751-10.874c-7.495-5.438-15.465-10.197-22.472-16.205C128.792,14.059,142.486,23.415,148.905,36.794z M109.783,8.701c5.529,5.865,11.985,10.618,18.513,15.394c8.803,6.441,15.677,13.005,22.466,21.471 c0.313,0.391,0.76,0.502,1.203,0.453c0.176,0.888,0.39,1.76,0.503,2.674c-6.262-7.311-15.017-12.976-22.627-18.46 c-11.012-7.935-22.541-15.11-33.378-23.266C100.88,7.094,105.367,7.697,109.783,8.701z M79.372,8.939 c5.448,4.962,11.866,10.401,18.721,13.319c-0.048,0.045-0.116,0.071-0.163,0.118c-5.026-1.456-9.409-1.086-13.099,0.477 c-4.832-3.671-10.041-7.062-15.362-9.965C72.676,11.257,75.988,9.9,79.372,8.939z M87.564,61.417 c-7.514-3.89-9.998-13.645-8.518-21.397c2.009-10.528,11.005-13.365,20.54-11.461c0.752,0.15,1.368,0.02,1.875-0.241 c11.329,0.919,17.383,9.939,14.58,21.259C113.069,61.581,98.093,66.867,87.564,61.417z M66.546,14.453 c5.319,2.985,10.148,6.713,15.229,10.027c-1.426,0.975-2.711,2.151-3.845,3.49c-2.613-1.835-5.524-3.296-8.179-5.083 c-2.618-1.763-5.124-3.685-7.593-5.653C63.584,16.24,65.052,15.318,66.546,14.453z M60.192,18.642 c2.192,1.826,4.398,3.635,6.643,5.398c2.846,2.235,5.951,4.829,9.361,6.28c-1.318,2.049-2.36,4.338-3.078,6.773 c-2.791-1.789-5.873-3.311-8.534-5.117c-3.653-2.48-7.094-5.256-10.196-8.377C56.218,21.829,58.164,20.175,60.192,18.642z M53.013,25.009c2.615,2.945,5.496,5.633,8.592,8.127c3.174,2.556,6.847,5.702,10.698,7.666c-0.39,2.445-0.508,4.955-0.282,7.44 c-3.569-2.407-7.883-4.1-11.457-6.456c-4.657-3.07-8.817-6.729-13.03-10.341C49.186,29.172,51.043,27.039,53.013,25.009z M99.593,174.251c-2.419-4.357-7.927-8.422-11.157-11.906c-5.387-5.814-10.48-11.89-15.86-17.707 c-0.689-0.746-1.692,0.332-1.09,1.09c4.589,5.777,9.475,11.317,14.162,17.016c2.352,2.86,4.721,5.706,7.112,8.534 c1.385,1.639,2.813,3.759,4.648,5.039c-2.212,1.982-4.542,3.844-7.045,5.524c-13.104-20.522-24.817-41.815-34.611-63.977 c9.52,9.369,18.126,19.464,27.027,29.415c5.503,6.152,13.208,17.651,21.948,19.299c1.942,0.366,3.245-2.226,1.39-3.297 c-19.62-11.318-31.351-33.903-49.614-47.119c-0.537-0.389-1.115,0.028-1.264,0.554c-3.1-7.073-5.99-14.24-8.679-21.493 c22.478,19.419,47.586,34.784,67.081,57.496c0.469,0.545,1.035,0.683,1.57,0.589C110.863,161.011,105.793,168.191,99.593,174.251z M116.823,150.392c-2.527-10.642-17.873-20.021-25.83-25.999C76.111,113.208,60.4,103.11,45.818,91.532 c-0.214-0.17-0.444-0.232-0.672-0.249c-1.85-5.164-3.628-10.359-5.251-15.618c0.389-0.43,0.632-0.965,0.653-1.568 c24.205,23.089,50.522,44.503,77.532,64.212c0.071,0.319,0.2,0.632,0.473,0.896c1.32,1.28,1.904,1.813,2.681,2.229 C119.843,144.461,118.385,147.459,116.823,150.392z M131.669,115.764c-2.54,6.67-5.211,13.605-8.165,20.477 c-28.81-21.125-56.579-43.226-84.049-66.03c-0.903-3.152-1.384-6.299-1.517-9.414c12.421,10.52,27.296,18.863,40.557,28.137 c9.628,6.734,19.184,13.573,28.542,20.677c3.413,2.59,16.511,10.25,17.242,15.183c0.305,2.062,3.032,1.5,3.627,0 c3.488-8.786-29.67-27.24-34.702-30.709C75.078,81.59,56.82,68.812,37.918,57.491c0.111-2.849,0.525-5.658,1.196-8.408 c14.218,12.262,31.248,21.976,46.788,32.202c11.472,7.55,22.141,15.908,32.981,24.326c2.079,1.614,4.125,3.278,6.261,4.814 c1.373,1.006,2.765,1.988,4.171,2.948c0.017,0.544,0.269,1.066,0.828,1.34c0.595,0.291,1.115,0.593,1.619,0.813 C131.734,115.605,131.699,115.687,131.669,115.764z M133.762,110.614c-3.389-3.382-8.246-6.01-11.999-8.736 c-9.926-7.209-19.304-14.826-29.727-21.347c-17.6-11.013-34.623-23.011-52.151-34.094c0.873-2.817,2.046-5.546,3.426-8.185 c9.759,14.48,24.228,24.161,39.07,32.89c17.614,10.36,34.195,21.806,51.434,32.541c0.255,0.159,0.531,0.204,0.808,0.203 c0.029,0.004,0.04,0.03,0.071,0.03c0.034,0,0.046-0.026,0.077-0.032c1.187-0.112,2.278-1.46,1.427-2.583 c-9.746-12.863-27.043-20.401-41-27.727c-19.055-10.002-37.07-20.155-50.662-37.277c-0.032-0.041-0.073-0.056-0.109-0.089 c0.493-0.848,1.072-1.649,1.611-2.472c3.469,3.494,7.307,6.622,11.217,9.609c4.21,3.215,9.803,7.728,15.299,8.32 c1.615,7.49,6.302,14.231,14.662,17.203c7.776,2.765,15.914,1.85,22.549-1.778c6.241,3.545,11.872,8.058,17.47,12.527 c4.255,3.397,9.129,8.837,14.407,10.578c0.563,0.186,1.057,0.027,1.41-0.294C139.923,97.039,136.561,104.025,133.762,110.614z M143.604,88.663c0.01-0.398-0.104-0.802-0.415-1.122c-3.92-4.028-9.571-7.013-14.12-10.3c-5.539-4.003-11.159-8.097-17.143-11.456 c3.212-2.161,5.978-5.004,8.038-8.41c4.94,3.96,9.79,8.037,14.593,12.154c4.072,3.491,7.92,7.759,12.64,10.323 C146.088,82.807,144.867,85.745,143.604,88.663z M135.723,66.132c-4.792-3.716-9.638-7.38-14.571-10.914 c0.795-1.637,1.448-3.373,1.913-5.216c0.396-1.576,0.611-3.145,0.693-4.694c3.099,2.714,6.225,5.397,9.328,8.102 c5.099,4.443,9.967,9.48,15.503,13.359c1.621,1.136,3.29-1.295,2.036-2.639c-4.502-4.825-10.352-8.656-15.554-12.705 c-3.816-2.97-7.567-6.015-11.319-9.058c-0.757-10.731-8.755-19.776-19.794-20.926c-0.115-0.153-0.263-0.292-0.463-0.404 c-4.396-2.447-8.984-4.258-13.235-7.019c-2.746-1.783-5.316-3.804-7.887-5.822c3.299-0.717,6.751-1.113,10.273-1.222 c8.023,6.822,16.376,13.226,24.82,19.523c12.258,9.142,23.378,19.403,35.285,28.851c-0.203,6.981-1.927,14.132-4.382,21.249 C145.198,72.369,139.751,69.255,135.723,66.132z"/></symbol><symbol id="smile-in-message-sketched-speech-bubble" viewBox="0 0 194.125 194.125"><title>smile-in-message-sketched-speech-bubble</title><path d="M190.873,12.656c-0.402-0.379-0.846-0.458-1.24-0.367c0.744-0.702,0.927-2.054-0.207-2.781 c-5.987-3.834-13.622-2.213-20.333-1.515c-15.975,1.662-31.45,0.275-47.454-0.661c-17.366-1.015-34.982,1.083-52.393,1.092 C48.706,8.434,28.152,7.2,7.626,8.274c-1.112,0.058-1.538,1.101-1.271,1.896c-0.326,0.676-0.218,1.632,0.485,2.174 c1.431,1.102-0.634,17.142-0.763,19.518C5.328,45.632,4.275,59.386,3.383,73.146c-1.027,15.85-7.628,44.222,0.989,58.824 c0.232,0.394,0.674,0.383,0.982,0.178c0.108,0.033,0.158,0.123,0.284,0.135c7.9,0.679,15.973,0.045,23.907-0.204 c-5.412,16.866-5.004,35.781-3.814,53.22c0.091,1.331,1.443,2.231,2.674,1.535c20.142-11.397,37.983-31.13,43.237-54.08 c0.042-0.186,0.021-0.347,0.014-0.514c38.229-1.212,80.045,7.121,117.518-2.865c0.09,0.003,0.161-0.043,0.251-0.061 c0.078-0.021,0.158-0.034,0.237-0.057c0.092-0.025,0.147-0.078,0.228-0.112c0.024-0.019,0.057-0.019,0.081-0.04 c1.041-0.505,1.083-1.748,0.459-2.514c1.547-26.118,0.498-52.352,2.084-78.491C192.931,41.249,196.767,18.205,190.873,12.656z M188.571,54.564c-1.436,23.659-1.952,47.911-0.571,71.603c-20.479,4.362-41.598,3.115-62.405,3.668 c-17.487,0.465-38.719-6.991-55.15,0.828c-0.889-0.316-1.968-0.04-2.238,1.143c-4.833,21.123-20.747,39.313-39.069,50.454 c-0.874-17.021,0.632-33.509,2.503-50.454c1.367-0.753,1.107-3.228-0.816-3.255c-8.348-0.118-16.875,0.268-25.184,1.075 c-0.154,0.015-0.22,0.12-0.346,0.167c-1.703-7.927-0.215-18.061,0.029-25.841c0.49-15.634,1.631-31.253,2.678-46.857 c0.327-4.874,5.786-38.156,1.609-45.971c32.622,0.879,65.525,1.886,98.091-0.332c13.702-0.933,27.68,1.121,41.354,1.843 c10.895,0.576,28.888-5.8,38.63-0.147c0.455,0.264,0.892,0.292,1.274,0.185c-0.394,0.407-0.582,1.042-0.292,1.685 C193.107,24.176,189.183,44.496,188.571,54.564z"/><path d="M80.967,51.193c-0.249,0.018-0.499,0.097-0.75,0.135c-1.955-0.751-4.224-0.987-5.784,0.712 c-1.423,1.549-1.341,3.876-0.742,5.754c1.211,3.795,5.515,8.313,9.734,5.723c2.436-1.496,3.963-5.217,3.709-7.971 C86.839,52.355,83.867,50.978,80.967,51.193z"/><path d="M88.513,94.528c-1.488-4.02-5.928-4.593-9.407-3.068c-2.832,0.322-5.32,2.733-6.104,5.453 c-1.07,3.708,2,7.262,5.433,8.166C83.886,106.512,90.551,100.031,88.513,94.528z"/><path d="M101.073,39.703c-1.459-0.074-2.491,2.069-1.26,3.043c8.768,6.936,14.825,14.949,17.528,25.961 c2.017,8.215-0.469,20.875-6.415,29.458c-3.423,3.693-7.53,6.437-12.206,7.607c-1.472,0.368-1.125,2.414,0.069,2.674 c0.069,0.933,0.854,1.846,2.068,1.601c4.177-0.841,7.628-3.308,10.461-6.603C131.938,87.677,131.346,41.225,101.073,39.703z"/></symbol><symbol id="list-verification" viewBox="0 0 195.194 195.194"><title>list-verification</title><path d="M140.565,12.8c-0.156-1.88-1.48-2.837-2.861-2.93c-0.358-1.107-1.157-2.026-2.428-2.231 c-17.716-2.861-36.386-1.783-54.32-2.237C58.196,4.825,35.34,4.701,12.704,7.386c-1.395,0.166-2.354,0.927-2.957,1.882 c-0.394-0.059-0.81-0.03-1.246,0.216c-13.707,7.719-6.897,44.009-6.175,56.213c2.302,38.902-0.208,77.752-0.217,116.692 c-0.001,3.085,2.699,4.348,5.04,3.915c0.366,0.345,0.829,0.627,1.518,0.723c13.282,1.858,26.877,2.312,40.275,2.509 c8.968,0.131,22.897,1.56,30.043-4.861c1.776-1.598,0.884-4.878-1.427-5.402c-8.814-1.999-19.447,1.184-28.616,1.253 c-12.758,0.097-25.707-1.212-38.416,0.213c0.347-33.632,2.963-67.474,1.312-101.077c-0.637-12.956-1.747-25.87-2.082-38.843 c-0.217-8.421,2.144-17.588,1.983-25.963c0.313,0.065,0.595,0.168,0.965,0.159c20.482-0.482,40.909-0.625,61.395-0.262 c19.767,0.351,40.532,2.926,60.155,0.13c-2.052,24.851-4.266,52.842-0.689,77.396c0.57,3.908,7.29,3.908,7.859,0 C145.1,67.044,142.658,38.153,140.565,12.8z"/><path d="M190.229,112.35c-0.332,0.246-0.651,0.515-0.979,0.765c-2.672-5.764-8.101-10.803-11.63-15.867 c-1.508-2.165-4.046-2.448-6.054-0.781c-17.666,14.669-34.982,29.834-51.8,45.485c-1.53-1.956-3.329-3.749-4.961-5.463 c-3.928-4.126-7.993-8.183-12.35-11.857c-1.137-0.959-2.397-0.781-3.241-0.097c-0.326,0.02-0.655,0.043-1.02,0.186 c-3.514,1.361-6.548,4.153-9.134,6.837c-2.217,2.299-5.353,5.329-6.142,8.54c-0.484,0.12-0.973,0.261-1.474,0.416 c0.041,0.031,0.082,0.062,0.123,0.094c-1.057,0.208-1.975,0.851-2.318,2.101c-0.167,0.608-0.099,1.277,0.125,1.895 c-0.348,0.658-0.431,1.446,0.044,2.205c8.675,13.88,17.713,27.643,27.567,40.717c0.711,0.944,1.644,1.429,2.603,1.578 c1.08,1.084,2.947,1.511,4.508,0.287c15.196-11.912,29.993-24.36,44.563-37.027c12.326-10.716,27.05-21.743,36.073-35.507 C196.476,114.198,192.912,110.365,190.229,112.35z M183.455,117.771c-0.42,0.356-0.822,0.741-1.239,1.104 c-1.208-1.104-2.435-2.188-3.534-3.32c-2.683-2.76-5.036-5.771-6.962-9.07c0.614-0.527,1.228-1.056,1.843-1.582 C176.606,109.366,179.793,113.969,183.455,117.771z M100.81,130.921c0.123-0.085,0.191-0.207,0.299-0.304 c2.35,2.659,4.744,5.277,7.04,7.984c1.739,2.05,3.245,4.409,4.813,6.705c-4.428-4.48-8.649-9.173-12.503-14.138 C100.577,131.087,100.688,131.003,100.81,130.921z M112.6,182.27c-8.954-12.22-17.717-24.697-27.581-36.207 c1.287-0.465,2.414-1.197,3.291-2.496c0.412-0.611,0.4-1.275,0.172-1.869c0.034-0.033,0.064-0.069,0.098-0.103 c3.702,7.771,8.054,15.171,12.769,22.369c3.209,4.9,7.406,12.55,12.838,15.184c0.767,0.373,1.487,0.229,1.989-0.179 C114.985,180.073,113.775,181.153,112.6,182.27z M116.397,178.762c0.448-0.517,0.616-1.293,0.258-2.086 c-2.709-6.004-9.291-11.39-13.297-16.658c-4.768-6.271-9.037-12.929-12.837-19.825c-0.097-0.175-0.214-0.304-0.342-0.398 c0.469-0.566,0.905-1.1,1.299-1.5c0.099-0.101,0.203-0.186,0.302-0.283c0.017,0.036-0.006,0.07,0.017,0.106 c4.554,7.125,10.38,13.298,16.013,19.572c2.91,3.242,5.809,6.491,8.65,9.794c1.798,2.091,3.491,4.554,6.156,5.447 c0.029,0.01,0.063-0.004,0.094,0.004C120.584,174.853,118.496,176.814,116.397,178.762z M124.855,171.025 c-0.908-5.806-8.861-10.929-12.85-14.729c-6.495-6.185-12.809-12.564-18.571-19.443c-0.08-0.095-0.185-0.084-0.278-0.136 c1.745-1.568,3.603-2.939,5.512-4.286c4.878,6.922,10.467,13.276,16.159,19.536c3.985,4.381,9.127,11.573,14.749,14.893 C128.008,168.251,126.42,169.625,124.855,171.025z M133.101,163.754c-3.278-4.459-9.245-8.287-13.391-11.931 c1.985,0.109,3.893-1.512,3.264-3.882c-0.027-0.103-0.074-0.199-0.104-0.301c0.643-0.494,1.26-1.019,1.898-1.517 c1.931,2.021,3.847,4.059,5.848,6.013c2.19,2.139,5.256,6.045,8.479,6.278c0.046,0.005,0.073-0.025,0.116-0.026 C137.172,160.175,135.137,161.965,133.101,163.754z M140.576,157.189c0.093-0.408,0.101-0.842-0.079-1.22 c-0.557-1.18-1.392-1.629-2.453-2.356c-1.741-1.19-3.345-2.592-4.943-3.962c-2.042-1.748-4.018-3.571-5.98-5.409 c2.2-1.738,4.355-3.534,6.527-5.307c2.486,2.66,5.001,5.291,7.676,7.765c1.809,1.672,3.768,3.503,6.036,4.533 C145.098,153.218,142.841,155.206,140.576,157.189z M152.775,146.477c-0.768,0.68-1.544,1.354-2.314,2.033 c-2.682-1.93-5.497-3.631-8.086-5.722c-2.236-1.805-4.37-3.73-6.489-5.674c2.881-2.374,5.698-4.825,8.548-7.236 c2.168,2.432,4.447,4.766,6.896,6.901c2.045,1.783,4.538,3.985,7.348,4.242C156.722,142.868,154.768,144.714,152.775,146.477z M161.428,138.437c-0.224-0.438-0.573-0.819-1.048-1.008c-4.907-1.944-9.53-5.711-13.357-9.743 c2.688-2.289,5.354-4.595,8.031-6.894c1.307,1.536,2.604,3.085,3.919,4.615c2.068,2.41,4.972,6.701,8.34,7.329 C165.351,134.644,163.392,136.55,161.428,138.437z M169.395,130.722c-0.037-0.123-0.013-0.236-0.082-0.361 c-1.6-2.905-5.452-5.153-7.827-7.467c-1.385-1.35-2.734-2.734-4.089-4.114c1.566-1.347,3.135-2.689,4.702-4.036 c2.375,2.434,4.854,4.773,7.383,7.037c1.354,1.213,3.05,3.074,4.923,4.17C172.729,127.533,171.053,129.116,169.395,130.722z M164.525,112.661c1.912-1.643,3.827-3.284,5.739-4.927c1.454,2.998,3.231,5.796,5.262,8.502c1.217,1.622,2.525,3.406,3.944,5.084 c-0.505,0.458-1.021,0.897-1.523,1.357C173.464,120.219,168.69,116.33,164.525,112.661z"/><path d="M35.331,32.36c-1.144,0.112-2.286,0.24-3.429,0.364c-5.242,0.567-5.242,7.582,0,8.149 c1.143,0.124,2.285,0.252,3.429,0.364C41.051,41.797,41.051,31.799,35.331,32.36z"/><path d="M116.439,33.039c-1.449-1.935-3.111-2.626-5.51-2.242c-17.367,2.777-38.347-4.252-54.727,3.159 c-1.062,0.48-2.007,2.074-1.859,3.242c0.07,0.556,0.023,1.731,0.563,2.195c4.933,4.234,19.33,1.57,25.493,1.676 c10.992,0.189,22.238,1.082,33.124-0.861c1.51-0.269,3.148-1.891,3.409-3.408C117.166,35.432,117.325,34.223,116.439,33.039z"/><path d="M40.392,58.37c-4.067,1.132-8.33,1.907-12.458,2.838c-2.699,0.609-2.836,5.065,0,5.575c2.008,0.361,3.94,0.3,5.965,0.117 c2.029-0.184,4.471-0.947,6.494-0.478c2.628,0.61,5.285-1.228,5.285-4.026C45.677,59.688,43.01,57.641,40.392,58.37z"/><path d="M113.303,60.929c-5.816,3.382-19.79,0.058-26.078-0.481c-9.908-0.85-20.712-2.795-30.616-1.284 c-3.277,0.5-3.148,5.853,0,6.465c12.626,2.456,25.691,4.277,38.504,5.349c6.83,0.572,20.923,2.98,23.409-6.038 C119.353,61.926,115.999,59.361,113.303,60.929z"/><path d="M39.171,84.123c-1.468-0.162-3.637,0.521-4.834,0.66c-1.222,0.142-1.912-0.016-2.687-0.064 c-1.175-0.913-3.362-0.113-3.455,1.676c-0.027,0.232-0.026,0.325-0.005,0.313c-0.402,1.159-0.347,2.524,0.651,3.394 c1.627,1.418,3.389,1.755,5.495,1.894c1.862,0.122,4.055,0.215,5.869-0.223c1.677-0.405,2.859-2.064,2.859-3.755 C43.065,85.719,41.279,84.354,39.171,84.123z"/><path d="M116.737,85.187c-6.805-3.07-16.904,0.227-24.465-0.006c-11.001-0.339-22.183-1.666-33.172-0.7 c-4.57,0.402-4.469,6.508,0,7.026c12.091,1.401,24.316,2.903,36.48,3.381c6.735,0.265,18.413,1.463,22.324-5.252 C118.725,88.227,118.356,85.918,116.737,85.187z"/></symbol></svg>