<svg xmlns="http://www.w3.org/2000/svg" style="display: inline-block;">
    <symbol id="placeholder-sketch" viewBox="0 0 190.632 190.633">
        <path d="M150.269,25.058C130.766-0.496,93.244-6.071,65.109,6.353c-22.487,9.93-41.687,42.744-31.043,66.81 c0.008,0.06-0.012,0.11,0,0.171c7.56,41.412,29.403,80.53,51.989,115.481c1.085,1.68,3.248,2.371,5.035,1.32 c28.259-16.616,39.414-50.667,50.445-79.637C151.979,83.08,171.091,52.344,150.269,25.058z M148.905,36.794 c-3.62-4.226-8.319-7.658-12.751-10.874c-7.495-5.438-15.465-10.197-22.472-16.205C128.792,14.059,142.486,23.415,148.905,36.794z M109.783,8.701c5.529,5.865,11.985,10.618,18.513,15.394c8.803,6.441,15.677,13.005,22.466,21.471 c0.313,0.391,0.76,0.502,1.203,0.453c0.176,0.888,0.39,1.76,0.503,2.674c-6.262-7.311-15.017-12.976-22.627-18.46 c-11.012-7.935-22.541-15.11-33.378-23.266C100.88,7.094,105.367,7.697,109.783,8.701z M79.372,8.939 c5.448,4.962,11.866,10.401,18.721,13.319c-0.048,0.045-0.116,0.071-0.163,0.118c-5.026-1.456-9.409-1.086-13.099,0.477 c-4.832-3.671-10.041-7.062-15.362-9.965C72.676,11.257,75.988,9.9,79.372,8.939z M87.564,61.417 c-7.514-3.89-9.998-13.645-8.518-21.397c2.009-10.528,11.005-13.365,20.54-11.461c0.752,0.15,1.368,0.02,1.875-0.241 c11.329,0.919,17.383,9.939,14.58,21.259C113.069,61.581,98.093,66.867,87.564,61.417z M66.546,14.453 c5.319,2.985,10.148,6.713,15.229,10.027c-1.426,0.975-2.711,2.151-3.845,3.49c-2.613-1.835-5.524-3.296-8.179-5.083 c-2.618-1.763-5.124-3.685-7.593-5.653C63.584,16.24,65.052,15.318,66.546,14.453z M60.192,18.642 c2.192,1.826,4.398,3.635,6.643,5.398c2.846,2.235,5.951,4.829,9.361,6.28c-1.318,2.049-2.36,4.338-3.078,6.773 c-2.791-1.789-5.873-3.311-8.534-5.117c-3.653-2.48-7.094-5.256-10.196-8.377C56.218,21.829,58.164,20.175,60.192,18.642z M53.013,25.009c2.615,2.945,5.496,5.633,8.592,8.127c3.174,2.556,6.847,5.702,10.698,7.666c-0.39,2.445-0.508,4.955-0.282,7.44 c-3.569-2.407-7.883-4.1-11.457-6.456c-4.657-3.07-8.817-6.729-13.03-10.341C49.186,29.172,51.043,27.039,53.013,25.009z M99.593,174.251c-2.419-4.357-7.927-8.422-11.157-11.906c-5.387-5.814-10.48-11.89-15.86-17.707 c-0.689-0.746-1.692,0.332-1.09,1.09c4.589,5.777,9.475,11.317,14.162,17.016c2.352,2.86,4.721,5.706,7.112,8.534 c1.385,1.639,2.813,3.759,4.648,5.039c-2.212,1.982-4.542,3.844-7.045,5.524c-13.104-20.522-24.817-41.815-34.611-63.977 c9.52,9.369,18.126,19.464,27.027,29.415c5.503,6.152,13.208,17.651,21.948,19.299c1.942,0.366,3.245-2.226,1.39-3.297 c-19.62-11.318-31.351-33.903-49.614-47.119c-0.537-0.389-1.115,0.028-1.264,0.554c-3.1-7.073-5.99-14.24-8.679-21.493 c22.478,19.419,47.586,34.784,67.081,57.496c0.469,0.545,1.035,0.683,1.57,0.589C110.863,161.011,105.793,168.191,99.593,174.251z M116.823,150.392c-2.527-10.642-17.873-20.021-25.83-25.999C76.111,113.208,60.4,103.11,45.818,91.532 c-0.214-0.17-0.444-0.232-0.672-0.249c-1.85-5.164-3.628-10.359-5.251-15.618c0.389-0.43,0.632-0.965,0.653-1.568 c24.205,23.089,50.522,44.503,77.532,64.212c0.071,0.319,0.2,0.632,0.473,0.896c1.32,1.28,1.904,1.813,2.681,2.229 C119.843,144.461,118.385,147.459,116.823,150.392z M131.669,115.764c-2.54,6.67-5.211,13.605-8.165,20.477 c-28.81-21.125-56.579-43.226-84.049-66.03c-0.903-3.152-1.384-6.299-1.517-9.414c12.421,10.52,27.296,18.863,40.557,28.137 c9.628,6.734,19.184,13.573,28.542,20.677c3.413,2.59,16.511,10.25,17.242,15.183c0.305,2.062,3.032,1.5,3.627,0 c3.488-8.786-29.67-27.24-34.702-30.709C75.078,81.59,56.82,68.812,37.918,57.491c0.111-2.849,0.525-5.658,1.196-8.408 c14.218,12.262,31.248,21.976,46.788,32.202c11.472,7.55,22.141,15.908,32.981,24.326c2.079,1.614,4.125,3.278,6.261,4.814 c1.373,1.006,2.765,1.988,4.171,2.948c0.017,0.544,0.269,1.066,0.828,1.34c0.595,0.291,1.115,0.593,1.619,0.813 C131.734,115.605,131.699,115.687,131.669,115.764z M133.762,110.614c-3.389-3.382-8.246-6.01-11.999-8.736 c-9.926-7.209-19.304-14.826-29.727-21.347c-17.6-11.013-34.623-23.011-52.151-34.094c0.873-2.817,2.046-5.546,3.426-8.185 c9.759,14.48,24.228,24.161,39.07,32.89c17.614,10.36,34.195,21.806,51.434,32.541c0.255,0.159,0.531,0.204,0.808,0.203 c0.029,0.004,0.04,0.03,0.071,0.03c0.034,0,0.046-0.026,0.077-0.032c1.187-0.112,2.278-1.46,1.427-2.583 c-9.746-12.863-27.043-20.401-41-27.727c-19.055-10.002-37.07-20.155-50.662-37.277c-0.032-0.041-0.073-0.056-0.109-0.089 c0.493-0.848,1.072-1.649,1.611-2.472c3.469,3.494,7.307,6.622,11.217,9.609c4.21,3.215,9.803,7.728,15.299,8.32 c1.615,7.49,6.302,14.231,14.662,17.203c7.776,2.765,15.914,1.85,22.549-1.778c6.241,3.545,11.872,8.058,17.47,12.527 c4.255,3.397,9.129,8.837,14.407,10.578c0.563,0.186,1.057,0.027,1.41-0.294C139.923,97.039,136.561,104.025,133.762,110.614z M143.604,88.663c0.01-0.398-0.104-0.802-0.415-1.122c-3.92-4.028-9.571-7.013-14.12-10.3c-5.539-4.003-11.159-8.097-17.143-11.456 c3.212-2.161,5.978-5.004,8.038-8.41c4.94,3.96,9.79,8.037,14.593,12.154c4.072,3.491,7.92,7.759,12.64,10.323 C146.088,82.807,144.867,85.745,143.604,88.663z M135.723,66.132c-4.792-3.716-9.638-7.38-14.571-10.914 c0.795-1.637,1.448-3.373,1.913-5.216c0.396-1.576,0.611-3.145,0.693-4.694c3.099,2.714,6.225,5.397,9.328,8.102 c5.099,4.443,9.967,9.48,15.503,13.359c1.621,1.136,3.29-1.295,2.036-2.639c-4.502-4.825-10.352-8.656-15.554-12.705 c-3.816-2.97-7.567-6.015-11.319-9.058c-0.757-10.731-8.755-19.776-19.794-20.926c-0.115-0.153-0.263-0.292-0.463-0.404 c-4.396-2.447-8.984-4.258-13.235-7.019c-2.746-1.783-5.316-3.804-7.887-5.822c3.299-0.717,6.751-1.113,10.273-1.222 c8.023,6.822,16.376,13.226,24.82,19.523c12.258,9.142,23.378,19.403,35.285,28.851c-0.203,6.981-1.927,14.132-4.382,21.249 C145.198,72.369,139.751,69.255,135.723,66.132z" />
    </symbol>
    <symbol id="smile-in-message-sketched-speech-bubble" viewBox="0 0 194.125 194.125">
        <title>smile-in-message-sketched-speech-bubble</title>
        <path d="M190.873,12.656c-0.402-0.379-0.846-0.458-1.24-0.367c0.744-0.702,0.927-2.054-0.207-2.781 c-5.987-3.834-13.622-2.213-20.333-1.515c-15.975,1.662-31.45,0.275-47.454-0.661c-17.366-1.015-34.982,1.083-52.393,1.092 C48.706,8.434,28.152,7.2,7.626,8.274c-1.112,0.058-1.538,1.101-1.271,1.896c-0.326,0.676-0.218,1.632,0.485,2.174 c1.431,1.102-0.634,17.142-0.763,19.518C5.328,45.632,4.275,59.386,3.383,73.146c-1.027,15.85-7.628,44.222,0.989,58.824 c0.232,0.394,0.674,0.383,0.982,0.178c0.108,0.033,0.158,0.123,0.284,0.135c7.9,0.679,15.973,0.045,23.907-0.204 c-5.412,16.866-5.004,35.781-3.814,53.22c0.091,1.331,1.443,2.231,2.674,1.535c20.142-11.397,37.983-31.13,43.237-54.08 c0.042-0.186,0.021-0.347,0.014-0.514c38.229-1.212,80.045,7.121,117.518-2.865c0.09,0.003,0.161-0.043,0.251-0.061 c0.078-0.021,0.158-0.034,0.237-0.057c0.092-0.025,0.147-0.078,0.228-0.112c0.024-0.019,0.057-0.019,0.081-0.04 c1.041-0.505,1.083-1.748,0.459-2.514c1.547-26.118,0.498-52.352,2.084-78.491C192.931,41.249,196.767,18.205,190.873,12.656z M188.571,54.564c-1.436,23.659-1.952,47.911-0.571,71.603c-20.479,4.362-41.598,3.115-62.405,3.668 c-17.487,0.465-38.719-6.991-55.15,0.828c-0.889-0.316-1.968-0.04-2.238,1.143c-4.833,21.123-20.747,39.313-39.069,50.454 c-0.874-17.021,0.632-33.509,2.503-50.454c1.367-0.753,1.107-3.228-0.816-3.255c-8.348-0.118-16.875,0.268-25.184,1.075 c-0.154,0.015-0.22,0.12-0.346,0.167c-1.703-7.927-0.215-18.061,0.029-25.841c0.49-15.634,1.631-31.253,2.678-46.857 c0.327-4.874,5.786-38.156,1.609-45.971c32.622,0.879,65.525,1.886,98.091-0.332c13.702-0.933,27.68,1.121,41.354,1.843 c10.895,0.576,28.888-5.8,38.63-0.147c0.455,0.264,0.892,0.292,1.274,0.185c-0.394,0.407-0.582,1.042-0.292,1.685 C193.107,24.176,189.183,44.496,188.571,54.564z" />
        <path d="M80.967,51.193c-0.249,0.018-0.499,0.097-0.75,0.135c-1.955-0.751-4.224-0.987-5.784,0.712 c-1.423,1.549-1.341,3.876-0.742,5.754c1.211,3.795,5.515,8.313,9.734,5.723c2.436-1.496,3.963-5.217,3.709-7.971 C86.839,52.355,83.867,50.978,80.967,51.193z" />
        <path d="M88.513,94.528c-1.488-4.02-5.928-4.593-9.407-3.068c-2.832,0.322-5.32,2.733-6.104,5.453 c-1.07,3.708,2,7.262,5.433,8.166C83.886,106.512,90.551,100.031,88.513,94.528z" />
        <path d="M101.073,39.703c-1.459-0.074-2.491,2.069-1.26,3.043c8.768,6.936,14.825,14.949,17.528,25.961 c2.017,8.215-0.469,20.875-6.415,29.458c-3.423,3.693-7.53,6.437-12.206,7.607c-1.472,0.368-1.125,2.414,0.069,2.674 c0.069,0.933,0.854,1.846,2.068,1.601c4.177-0.841,7.628-3.308,10.461-6.603C131.938,87.677,131.346,41.225,101.073,39.703z" />
    </symbol>
    <symbol id="list-verification" viewBox="0 0 195.194 195.194">
        <title>list-verification</title>
        <path d="M140.565,12.8c-0.156-1.88-1.48-2.837-2.861-2.93c-0.358-1.107-1.157-2.026-2.428-2.231 c-17.716-2.861-36.386-1.783-54.32-2.237C58.196,4.825,35.34,4.701,12.704,7.386c-1.395,0.166-2.354,0.927-2.957,1.882 c-0.394-0.059-0.81-0.03-1.246,0.216c-13.707,7.719-6.897,44.009-6.175,56.213c2.302,38.902-0.208,77.752-0.217,116.692 c-0.001,3.085,2.699,4.348,5.04,3.915c0.366,0.345,0.829,0.627,1.518,0.723c13.282,1.858,26.877,2.312,40.275,2.509 c8.968,0.131,22.897,1.56,30.043-4.861c1.776-1.598,0.884-4.878-1.427-5.402c-8.814-1.999-19.447,1.184-28.616,1.253 c-12.758,0.097-25.707-1.212-38.416,0.213c0.347-33.632,2.963-67.474,1.312-101.077c-0.637-12.956-1.747-25.87-2.082-38.843 c-0.217-8.421,2.144-17.588,1.983-25.963c0.313,0.065,0.595,0.168,0.965,0.159c20.482-0.482,40.909-0.625,61.395-0.262 c19.767,0.351,40.532,2.926,60.155,0.13c-2.052,24.851-4.266,52.842-0.689,77.396c0.57,3.908,7.29,3.908,7.859,0 C145.1,67.044,142.658,38.153,140.565,12.8z" />
        <path d="M190.229,112.35c-0.332,0.246-0.651,0.515-0.979,0.765c-2.672-5.764-8.101-10.803-11.63-15.867 c-1.508-2.165-4.046-2.448-6.054-0.781c-17.666,14.669-34.982,29.834-51.8,45.485c-1.53-1.956-3.329-3.749-4.961-5.463 c-3.928-4.126-7.993-8.183-12.35-11.857c-1.137-0.959-2.397-0.781-3.241-0.097c-0.326,0.02-0.655,0.043-1.02,0.186 c-3.514,1.361-6.548,4.153-9.134,6.837c-2.217,2.299-5.353,5.329-6.142,8.54c-0.484,0.12-0.973,0.261-1.474,0.416 c0.041,0.031,0.082,0.062,0.123,0.094c-1.057,0.208-1.975,0.851-2.318,2.101c-0.167,0.608-0.099,1.277,0.125,1.895 c-0.348,0.658-0.431,1.446,0.044,2.205c8.675,13.88,17.713,27.643,27.567,40.717c0.711,0.944,1.644,1.429,2.603,1.578 c1.08,1.084,2.947,1.511,4.508,0.287c15.196-11.912,29.993-24.36,44.563-37.027c12.326-10.716,27.05-21.743,36.073-35.507 C196.476,114.198,192.912,110.365,190.229,112.35z M183.455,117.771c-0.42,0.356-0.822,0.741-1.239,1.104 c-1.208-1.104-2.435-2.188-3.534-3.32c-2.683-2.76-5.036-5.771-6.962-9.07c0.614-0.527,1.228-1.056,1.843-1.582 C176.606,109.366,179.793,113.969,183.455,117.771z M100.81,130.921c0.123-0.085,0.191-0.207,0.299-0.304 c2.35,2.659,4.744,5.277,7.04,7.984c1.739,2.05,3.245,4.409,4.813,6.705c-4.428-4.48-8.649-9.173-12.503-14.138 C100.577,131.087,100.688,131.003,100.81,130.921z M112.6,182.27c-8.954-12.22-17.717-24.697-27.581-36.207 c1.287-0.465,2.414-1.197,3.291-2.496c0.412-0.611,0.4-1.275,0.172-1.869c0.034-0.033,0.064-0.069,0.098-0.103 c3.702,7.771,8.054,15.171,12.769,22.369c3.209,4.9,7.406,12.55,12.838,15.184c0.767,0.373,1.487,0.229,1.989-0.179 C114.985,180.073,113.775,181.153,112.6,182.27z M116.397,178.762c0.448-0.517,0.616-1.293,0.258-2.086 c-2.709-6.004-9.291-11.39-13.297-16.658c-4.768-6.271-9.037-12.929-12.837-19.825c-0.097-0.175-0.214-0.304-0.342-0.398 c0.469-0.566,0.905-1.1,1.299-1.5c0.099-0.101,0.203-0.186,0.302-0.283c0.017,0.036-0.006,0.07,0.017,0.106 c4.554,7.125,10.38,13.298,16.013,19.572c2.91,3.242,5.809,6.491,8.65,9.794c1.798,2.091,3.491,4.554,6.156,5.447 c0.029,0.01,0.063-0.004,0.094,0.004C120.584,174.853,118.496,176.814,116.397,178.762z M124.855,171.025 c-0.908-5.806-8.861-10.929-12.85-14.729c-6.495-6.185-12.809-12.564-18.571-19.443c-0.08-0.095-0.185-0.084-0.278-0.136 c1.745-1.568,3.603-2.939,5.512-4.286c4.878,6.922,10.467,13.276,16.159,19.536c3.985,4.381,9.127,11.573,14.749,14.893 C128.008,168.251,126.42,169.625,124.855,171.025z M133.101,163.754c-3.278-4.459-9.245-8.287-13.391-11.931 c1.985,0.109,3.893-1.512,3.264-3.882c-0.027-0.103-0.074-0.199-0.104-0.301c0.643-0.494,1.26-1.019,1.898-1.517 c1.931,2.021,3.847,4.059,5.848,6.013c2.19,2.139,5.256,6.045,8.479,6.278c0.046,0.005,0.073-0.025,0.116-0.026 C137.172,160.175,135.137,161.965,133.101,163.754z M140.576,157.189c0.093-0.408,0.101-0.842-0.079-1.22 c-0.557-1.18-1.392-1.629-2.453-2.356c-1.741-1.19-3.345-2.592-4.943-3.962c-2.042-1.748-4.018-3.571-5.98-5.409 c2.2-1.738,4.355-3.534,6.527-5.307c2.486,2.66,5.001,5.291,7.676,7.765c1.809,1.672,3.768,3.503,6.036,4.533 C145.098,153.218,142.841,155.206,140.576,157.189z M152.775,146.477c-0.768,0.68-1.544,1.354-2.314,2.033 c-2.682-1.93-5.497-3.631-8.086-5.722c-2.236-1.805-4.37-3.73-6.489-5.674c2.881-2.374,5.698-4.825,8.548-7.236 c2.168,2.432,4.447,4.766,6.896,6.901c2.045,1.783,4.538,3.985,7.348,4.242C156.722,142.868,154.768,144.714,152.775,146.477z M161.428,138.437c-0.224-0.438-0.573-0.819-1.048-1.008c-4.907-1.944-9.53-5.711-13.357-9.743 c2.688-2.289,5.354-4.595,8.031-6.894c1.307,1.536,2.604,3.085,3.919,4.615c2.068,2.41,4.972,6.701,8.34,7.329 C165.351,134.644,163.392,136.55,161.428,138.437z M169.395,130.722c-0.037-0.123-0.013-0.236-0.082-0.361 c-1.6-2.905-5.452-5.153-7.827-7.467c-1.385-1.35-2.734-2.734-4.089-4.114c1.566-1.347,3.135-2.689,4.702-4.036 c2.375,2.434,4.854,4.773,7.383,7.037c1.354,1.213,3.05,3.074,4.923,4.17C172.729,127.533,171.053,129.116,169.395,130.722z M164.525,112.661c1.912-1.643,3.827-3.284,5.739-4.927c1.454,2.998,3.231,5.796,5.262,8.502c1.217,1.622,2.525,3.406,3.944,5.084 c-0.505,0.458-1.021,0.897-1.523,1.357C173.464,120.219,168.69,116.33,164.525,112.661z" />
        <path d="M35.331,32.36c-1.144,0.112-2.286,0.24-3.429,0.364c-5.242,0.567-5.242,7.582,0,8.149 c1.143,0.124,2.285,0.252,3.429,0.364C41.051,41.797,41.051,31.799,35.331,32.36z" />
        <path d="M116.439,33.039c-1.449-1.935-3.111-2.626-5.51-2.242c-17.367,2.777-38.347-4.252-54.727,3.159 c-1.062,0.48-2.007,2.074-1.859,3.242c0.07,0.556,0.023,1.731,0.563,2.195c4.933,4.234,19.33,1.57,25.493,1.676 c10.992,0.189,22.238,1.082,33.124-0.861c1.51-0.269,3.148-1.891,3.409-3.408C117.166,35.432,117.325,34.223,116.439,33.039z" />
        <path d="M40.392,58.37c-4.067,1.132-8.33,1.907-12.458,2.838c-2.699,0.609-2.836,5.065,0,5.575c2.008,0.361,3.94,0.3,5.965,0.117 c2.029-0.184,4.471-0.947,6.494-0.478c2.628,0.61,5.285-1.228,5.285-4.026C45.677,59.688,43.01,57.641,40.392,58.37z" />
        <path d="M113.303,60.929c-5.816,3.382-19.79,0.058-26.078-0.481c-9.908-0.85-20.712-2.795-30.616-1.284 c-3.277,0.5-3.148,5.853,0,6.465c12.626,2.456,25.691,4.277,38.504,5.349c6.83,0.572,20.923,2.98,23.409-6.038 C119.353,61.926,115.999,59.361,113.303,60.929z" />
        <path d="M39.171,84.123c-1.468-0.162-3.637,0.521-4.834,0.66c-1.222,0.142-1.912-0.016-2.687-0.064 c-1.175-0.913-3.362-0.113-3.455,1.676c-0.027,0.232-0.026,0.325-0.005,0.313c-0.402,1.159-0.347,2.524,0.651,3.394 c1.627,1.418,3.389,1.755,5.495,1.894c1.862,0.122,4.055,0.215,5.869-0.223c1.677-0.405,2.859-2.064,2.859-3.755 C43.065,85.719,41.279,84.354,39.171,84.123z" />
        <path d="M116.737,85.187c-6.805-3.07-16.904,0.227-24.465-0.006c-11.001-0.339-22.183-1.666-33.172-0.7 c-4.57,0.402-4.469,6.508,0,7.026c12.091,1.401,24.316,2.903,36.48,3.381c6.735,0.265,18.413,1.463,22.324-5.252 C118.725,88.227,118.356,85.918,116.737,85.187z" />
    </symbol>
</svg>