<svg xmlns="http://www.w3.org/2000/svg" style="display: none;"><symbol id="calendar" viewBox="0 0 194.721 194.721"><title>calendar</title><path d="M191.791,113.42c-1.691-28.352,2.937-56.322-0.871-84.683c-0.139-1.037-0.758-1.879-1.896-1.897 c-13.329-0.197-26.65-1.16-39.956-0.937c0.508-0.112,0.974-0.398,1.114-1.001c2.19-9.326-8.063-14.877-15.694-16.099 c-9.298-1.489-21.258,1.758-26.788,9.874c-1.478,2.168-2.368,4.727-2.786,7.474c-4.234-2.81-11.893-1.58-16.34-1.279 c-4.543,0.307-9.064,0.855-13.584,1.396c1.024-7.252-4.703-12.767-11.872-13.786c-9.564-1.359-20.081,3.456-26.123,10.754 c-2.029,2.451-3.108,5.162-3.585,7.951c-3.665-1.285-9.178-0.615-12.709-0.801c-6.23-0.328-12.598-0.527-18.7,0.934 c-0.516-0.235-1.1-0.095-1.413,0.422c-0.719,0.484-0.736,1.39-0.281,2.034c-1.872,50.139,7.044,99.755,0.748,149.915 c-0.131,1.042,0.955,1.853,1.881,1.881c32.881,1.022,65.563-1.335,98.351-3.519c29.03-1.935,58.274,1.771,87.312,2.107 c-0.174,2.188,3.185,3.046,3.673,0.743C197.327,161.119,193.219,137.386,191.791,113.42z M181.364,30.519 c5.113,0.181,7.403,6.722,8.266,15.187c-5.802-4.276-10.47-9.651-15.783-14.53c-0.525-0.483-1.258,0.252-0.78,0.781 c3.03,3.365,6.091,6.705,9.112,10.079c2.025,2.261,4.646,5.915,7.708,6.882c0.456,7.623-0.013,16.262-0.533,23.12 c-1.786-1.327-4.169-1.891-6.7-2.118c-2.631-7.19-10.083-14.218-14.846-19.787c-5.551-6.493-11.223-13.276-18.16-18.284 c-0.452-0.327-1.028,0.421-0.597,0.773c12.306,10.028,20.089,25.123,30.24,37.154c-2.164,0.01-4.312,0.151-6.196,0.205 c0.544-0.225,0.928-0.847,0.55-1.438c-4.604-7.197-11.366-13.715-16.679-20.486c-4.66-5.941-10.064-14.461-17.216-17.636 c-0.506-0.225-1.041,0.359-0.615,0.797c6.247,6.41,11.896,12.846,17.278,20.06c4.474,5.995,9.281,14.815,15.812,18.685 c0.055,0.032,0.11,0.01,0.165,0.03c-0.297,0.005-0.617,0.018-0.896,0.014c-1.698-0.018-3.395,0.006-5.091,0.009 c0.105-0.125,0.225-0.236,0.285-0.412c0.21-0.602,0.107-0.885-0.124-1.49c-0.213-0.559-0.843-0.763-1.307-0.551 c-0.019-0.092-0.229-0.312-0.877-1.025c-0.883-0.971-1.7-2.002-2.524-3.023c-1.992-2.472-3.998-4.9-6.059-7.315 c-6.974-8.174-13.518-16.703-21.172-24.264c0.499-0.867,1.082-1.657,1.614-2.574C151.306,29.353,166.306,29.988,181.364,30.519z M158.053,68.197c-4.608-4.428-9.156-8.584-13.295-13.504c-3.872-4.601-7.539-9.41-11.659-13.797 c-0.009-2.154,0.125-4.308,0.536-6.424c0.057-0.288,0.156-0.525,0.237-0.783c7.753,8.701,14.304,18.368,22.095,27.015 c1.822,2.022,4.664,7.716,7.794,9.315c-1.996,0.01-3.992,0.002-5.989,0.01C158.382,69.644,158.71,68.827,158.053,68.197z M111.693,19.752c4.855-5.949,13.462-7.717,20.724-7.372c8.515,0.405,12.737,4.797,14.787,12.522 c0.158,0.595,0.646,0.892,1.172,1.006c-4.216,0.084-8.431,0.312-12.644,0.707c-0.155-0.05-0.296-0.128-0.482-0.116 c-5.088,0.33-5.703,8.581-5.917,12.327c-0.218,3.83-0.787,11.117,2.459,13.888c0.076,0.064,0.157,0.076,0.236,0.114 C115.301,60.425,101.538,32.192,111.693,19.752z M104.4,29.569c0.085,0.017,0.152-0.032,0.236-0.028 c-0.208,16.513,14.758,36.904,30.138,24.899c1.212-0.946-0.298-2.728-1.561-2.102c0.032-0.084,0.083-0.154,0.094-0.253 c0.292-2.579,0.065-5.143-0.103-7.762c3.259,4.055,6.464,8.149,9.692,12.231c3.801,4.802,8.042,10.466,13.505,13.477 c-3.249,0.016-6.499-0.011-9.748,0.016c0.496-0.533,0.621-1.518-0.145-2.089c-4.738-3.533-8.117-7.915-12.185-12.118 c-0.539-0.557-1.551,0.186-1.09,0.841c3.36,4.773,7.112,9.88,11.843,13.378c-2.534,0.02-5.067,0.041-7.602,0.056 c-0.046-0.107-0.027-0.22-0.127-0.319c0.63,0.63,0.005-0.089-0.173-0.377c-0.381-0.618-0.831-1.111-1.336-1.631 c-1.391-1.431-2.85-2.797-4.279-4.191c-1.427-1.393-2.857-2.781-4.282-4.175c-0.364-0.356-0.92-0.971-1.428-1.111 c-0.112-0.031-0.278-0.038-0.437-0.032c-0.125-0.116-0.269-0.257-0.441-0.259c-0.1-0.001-0.183,0.068-0.212,0.161 c-0.125,0.398,0.119,1.333,0.409,1.767c1.062,1.598,2.484,2.999,3.784,4.402c1.5,1.618,2.979,3.271,4.543,4.828 c0.317,0.316,0.636,0.641,0.967,0.95c-2.618,0.008-5.235,0.054-7.853,0.036c0.146-0.012,0.295,0.001,0.441-0.026 c0.928-0.172,1.105-1.624,0.266-2.033c-7.465-3.634-12.733-13.411-17.466-19.794c-4.743-6.399-9.349-14.109-15.268-19.717 C97.849,28.636,101.119,28.902,104.4,29.569z M81.654,29.37c7.46,6.992,13.321,15.251,19.226,23.551 c3.901,5.484,8.111,12.86,14.008,16.38c0.883,0.527,2.165-0.581,1.491-1.491c-5.087-6.857-11.009-13.188-16.15-20.075 c-4.937-6.613-10.086-13.207-16.377-18.592c2.789-0.28,5.578-0.454,8.369-0.514c7.28,8.349,12.889,18.295,19.453,27.192 c2.647,3.588,8.351,13.618,13.936,14.329c-3.391-0.029-6.779-0.051-10.171-0.154c-2.473-0.075-4.932-0.057-7.397-0.094 c0.4-0.508,0.509-1.242-0.074-1.853c-6.336-6.647-12.564-13.384-18.673-20.242c-4.699-5.277-9.742-13.516-15.815-17.49 C76.207,30.011,78.93,29.671,81.654,29.37z M85.729,48.025c6.391,7.508,12.935,14.959,19.995,21.847 c-3.104-0.034-6.215-0.116-9.314-0.118c0.174-0.328,0.304-0.76,0.344-1.395c0.084-1.333-1.817-1.444-2.213-0.3 c0.888-2.566-11.772-16.307-13.394-18.448C76,42.814,70.562,36.386,63.868,31.103c2.668-0.101,5.325-0.343,7.978-0.622 C74.305,36.93,81.334,42.861,85.729,48.025z M54.846,55.412c2.303,3.37,4.898,6.535,7.493,9.683 c0.833,1.011,2.261,3.142,3.845,4.823c-1.658,0.022-3.315,0.042-4.977,0.063c-0.362-1.056-1.174-1.798-1.92-2.632 c-1.449-1.62-2.88-3.256-4.322-4.882c-2.084-2.35-4.175-4.555-6.495-6.598c2.125,0.236,4.201-0.202,5.968-1.414 c0.003,0.001-0.001,0.003,0.001,0.004c0.165,0.091,0.244,0.525,0.406,0.203C54.733,54.891,54.694,55.188,54.846,55.412z M64.166,63.27c-2.657-2.943-5.119-6.188-8.154-8.756c-0.188-0.159-0.469-0.292-0.721-0.191c0.011-0.005-0.163-0.125-0.341-0.237 c1.026-0.826,1.935-1.932,2.65-3.38c0.708-0.388,1.139-1.214,0.576-2.087c-1.011-1.57-1.389-3.159-1.382-4.771 c3.564,5.077,7.52,9.884,11.225,14.853c2.182,2.924,4.314,5.863,6.564,8.741c0.615,0.787,1.235,1.685,1.997,2.374 c-2.008,0.022-4.014,0.022-6.024,0.047c-0.501-0.62-1.161-1.141-1.727-1.676C67.191,66.636,65.676,64.944,64.166,63.27z M57.095,41.315c0.211-0.954,0.509-1.916,0.871-2.89c0.267-0.717,0.594-1.334,0.939-1.926c3.8,5.879,8.292,11.461,12.427,17.075 c4.049,5.495,8.256,11.832,13.658,16.195c-1.778,0.013-3.559,0.006-5.336,0.023c0.007-0.257-0.053-0.522-0.262-0.766 C71.693,60.043,64.72,50.403,57.095,41.315z M73.386,51.989c-4.272-5.464-8.33-12.094-13.589-16.793 c0.825-1.084,1.782-2.042,2.782-3.015c9.926,9.144,17.572,20.602,25.449,31.482c0.525,0.726,3.459,4.545,5.784,6.091 c-1.8,0.003-3.602-0.01-5.401-0.001c0.009-0.321-0.09-0.647-0.336-0.918C83.033,63.293,78.017,57.911,73.386,51.989z M42.5,22.901 c4.622-4.375,11.37-6.601,17.622-6.819c7.781-0.271,10.511,4.006,11.114,10.608c-3.575,0.409-7.153,0.78-10.748,0.972 c-1.251-0.26-2.148,1.317-1.845,2.453c-1.803,1.964-3.19,4.724-3.898,6.438c-1.685,4.077-2.848,9.884,0.472,13.45 c-6.196,4.496-11.657,0.919-15.62-5.698C35.116,36.826,36.278,28.792,42.5,22.901z M20.7,34.161 c3.433,0.166,8.744,1.543,12.451,0.614c0.148,5.502,2.528,11.075,6.002,15.537c2.134,2.74,5.001,4.562,7.903,5.275 c-0.012,0.121,0.019,0.251,0.118,0.375c2.101,2.608,3.987,5.558,6.074,8.224c1.23,1.571,2.461,3.141,3.728,4.683 c0.312,0.379,0.615,0.773,0.931,1.152c-1.629,0.019-3.253,0.043-4.886,0.059c-4.553,0.045-9.039-0.094-13.499-0.243 c0.448-0.311,0.662-0.943,0.201-1.472c-5.195-5.945-10.158-11.544-14.55-18.183c-3.778-5.711-7.58-11.516-12.564-16.26 c-0.004-0.004-0.009-0.001-0.013-0.005C15.304,33.933,18.012,34.03,20.7,34.161z M2.82,34.387c2.953-0.35,5.933-0.478,8.915-0.483 c-0.26,0.225-0.374,0.625-0.076,0.968c5.354,6.176,9.409,13.131,13.747,20.018c3.325,5.28,7.253,11.868,12.923,14.916 c-2.918-0.096-5.833-0.205-8.732-0.228c0.224-0.21,0.426-0.487,0.576-0.926c0.341-1.001-1.146-1.934-1.833-1.068 c0.534-0.672-7.37-10.909-8.663-12.646c-4.771-6.406-9.45-13.015-14.308-19.306c-0.16-0.207-0.605-0.264-0.655,0.085 c-0.527,3.738,3.249,7.759,5.275,10.529c3.191,4.363,6.42,8.66,9.418,13.159c0.552,0.829,5.14,8.436,8.254,10.169 c-2.47,0.008-4.937,0.054-7.405,0.214c0.011-0.19,0.007-0.384-0.111-0.559c-4.852-7.17-10.149-14.76-16.01-21.171 c-0.151-0.165-0.33-0.207-0.508-0.192C3.357,43.371,3.086,38.875,2.82,34.387z M3.755,49.998c2.432,3.93,5.134,7.743,7.722,11.56 c1.938,2.857,3.792,6.063,6.377,8.394c-1.562,0.143-3.125,0.32-4.69,0.557c0.011-0.191,0.031-0.383-0.076-0.584 c-2.443-4.585-5.867-8.499-8.015-13.308c-0.199-0.446-0.6-0.501-0.943-0.353C4.004,54.175,3.88,52.088,3.755,49.998z M4.349,59.939c0.87,2.218,2.171,4.337,3.35,6.307c0.991,1.655,1.997,3.205,3.3,4.592c-1.852,0.34-3.706,0.743-5.568,1.259 c-0.139,0.038-0.239,0.106-0.343,0.17C4.85,68.154,4.596,64.05,4.349,59.939z M189.239,180.426 c-0.077-0.01-0.134-0.045-0.215-0.046c-22.4-0.237-44.755-1.962-67.152-2.42c-28.725-0.587-57.5,3.064-86.205,4.024 c-13.915,0.465-30.914,4.98-29.097-14.022c1.52-15.898,1.169-31.979,0.713-47.917c-0.435-15.213-1.201-30.442-2.071-45.666 c0.246,0.139,0.541,0.214,0.89,0.149c15.732-2.937,31.088-1.258,46.92-0.692c18.05,0.645,36.176-1.101,54.27-0.52 c15.34,0.493,30.569,0.802,45.927,0.603c8.133-0.105,26.506-3.206,34.25,0.843c0.572,0.299,1.188,0.195,1.68-0.104 c-0.311,3.817-0.598,6.864-0.667,8.501C187.142,115.19,194.915,148.793,189.239,180.426z"/><path d="M69.55,112.319c7.25-8.333,13.78-17.034,19.205-26.739c0.675-1.208-0.166-2.863-1.62-2.823 c-11.346,0.312-22.544,2.193-33.884,2.625c-0.459,0.017-0.973,0.243-1.186,0.68l-0.029,0.059c-0.043,0.089-0.017,0.168-0.04,0.256 c-0.043,0.123-0.058,0.241-0.06,0.378c0.002,0.137,0.018,0.256,0.06,0.378c0.023,0.087-0.003,0.167,0.04,0.256l0.029,0.059 c0.213,0.438,0.726,0.663,1.186,0.68c10.207,0.389,20.266-0.971,30.441-1.448c-5.516,9.192-11.936,17.598-19.129,25.618 c-1.162,1.297-0.312,3.093,1.346,3.245c12.406,1.146,26.945,8.488,28.318,22.37c2.095,21.176-33.795,24.355-34.28,1.2 c-0.049-2.35-3.579-2.346-3.643,0c-0.561,21.086,23.033,25.197,36.007,12.411C109.816,134.278,86.651,116.012,69.55,112.319z"/><path d="M124.571,130.013c0.139-14.773,1.539-31.334-1.667-45.877c-0.39-1.765-2.527-1.609-3.424-0.447 c-5.135,6.656-11.338,12.237-15.854,19.347c-0.982,1.547,1.353,2.795,2.396,1.401c4.133-5.514,9.085-10.096,13.758-15.112 c-0.411-4.021-0.428-4.48-0.048-1.377c0.208,1.821,0.292,3.659,0.401,5.487c0.489,8.136,0.559,16.305,0.632,24.453 c0.078,8.615-0.003,17.232-0.248,25.844c-0.072,2.554,0.887,11.011-0.54,13.123c-0.763,1.129,0.695,2.37,1.776,1.776 C127.294,155.592,124.525,134.898,124.571,130.013z"/><path d="M49.259,67.32C40.353,56.724,32.77,44.721,22.658,35.195c-0.825-0.777-1.982,0.398-1.235,1.235 C30.747,46.876,38.071,58.802,47.18,69.4C48.422,70.844,50.467,68.758,49.259,67.32z"/><path d="M188.896,65.484c-9.244-12.131-19.7-23.676-29.986-34.935c-0.36-0.394-0.889,0.106-0.692,0.534 c2.64,5.746,7.274,10.615,11.294,15.418c5.671,6.776,11.452,13.457,16.808,20.49C187.468,68.501,190.063,67.015,188.896,65.484z"/><path d="M189.868,56.545c-0.928-1.844-2.915-3.192-4.321-4.676c-2.576-2.719-4.919-5.668-7.286-8.566 c-3.296-4.036-7.38-11.009-12.429-13.012c-0.479-0.19-0.944,0.459-0.666,0.866c3.563,5.217,8.206,10.004,12.088,15.025 c2.602,3.365,7.035,11.389,11.771,11.835C189.816,58.091,190.169,57.146,189.868,56.545z"/></symbol><symbol id="map-placeholder" viewBox="0 0 190.632 190.633"><title>map placeholder</title><path d="M150.269,25.058C130.766-0.496,93.244-6.071,65.109,6.353c-22.487,9.93-41.687,42.744-31.043,66.81 c0.008,0.06-0.012,0.11,0,0.171c7.56,41.412,29.403,80.53,51.989,115.481c1.085,1.68,3.248,2.371,5.035,1.32 c28.259-16.616,39.414-50.667,50.445-79.637C151.979,83.08,171.091,52.344,150.269,25.058z M148.905,36.794 c-3.62-4.226-8.319-7.658-12.751-10.874c-7.495-5.438-15.465-10.197-22.472-16.205C128.792,14.059,142.486,23.415,148.905,36.794z M109.783,8.701c5.529,5.865,11.985,10.618,18.513,15.394c8.803,6.441,15.677,13.005,22.466,21.471 c0.313,0.391,0.76,0.502,1.203,0.453c0.176,0.888,0.39,1.76,0.503,2.674c-6.262-7.311-15.017-12.976-22.627-18.46 c-11.012-7.935-22.541-15.11-33.378-23.266C100.88,7.094,105.367,7.697,109.783,8.701z M79.372,8.939 c5.448,4.962,11.866,10.401,18.721,13.319c-0.048,0.045-0.116,0.071-0.163,0.118c-5.026-1.456-9.409-1.086-13.099,0.477 c-4.832-3.671-10.041-7.062-15.362-9.965C72.676,11.257,75.988,9.9,79.372,8.939z M87.564,61.417 c-7.514-3.89-9.998-13.645-8.518-21.397c2.009-10.528,11.005-13.365,20.54-11.461c0.752,0.15,1.368,0.02,1.875-0.241 c11.329,0.919,17.383,9.939,14.58,21.259C113.069,61.581,98.093,66.867,87.564,61.417z M66.546,14.453 c5.319,2.985,10.148,6.713,15.229,10.027c-1.426,0.975-2.711,2.151-3.845,3.49c-2.613-1.835-5.524-3.296-8.179-5.083 c-2.618-1.763-5.124-3.685-7.593-5.653C63.584,16.24,65.052,15.318,66.546,14.453z M60.192,18.642 c2.192,1.826,4.398,3.635,6.643,5.398c2.846,2.235,5.951,4.829,9.361,6.28c-1.318,2.049-2.36,4.338-3.078,6.773 c-2.791-1.789-5.873-3.311-8.534-5.117c-3.653-2.48-7.094-5.256-10.196-8.377C56.218,21.829,58.164,20.175,60.192,18.642z M53.013,25.009c2.615,2.945,5.496,5.633,8.592,8.127c3.174,2.556,6.847,5.702,10.698,7.666c-0.39,2.445-0.508,4.955-0.282,7.44 c-3.569-2.407-7.883-4.1-11.457-6.456c-4.657-3.07-8.817-6.729-13.03-10.341C49.186,29.172,51.043,27.039,53.013,25.009z M99.593,174.251c-2.419-4.357-7.927-8.422-11.157-11.906c-5.387-5.814-10.48-11.89-15.86-17.707 c-0.689-0.746-1.692,0.332-1.09,1.09c4.589,5.777,9.475,11.317,14.162,17.016c2.352,2.86,4.721,5.706,7.112,8.534 c1.385,1.639,2.813,3.759,4.648,5.039c-2.212,1.982-4.542,3.844-7.045,5.524c-13.104-20.522-24.817-41.815-34.611-63.977 c9.52,9.369,18.126,19.464,27.027,29.415c5.503,6.152,13.208,17.651,21.948,19.299c1.942,0.366,3.245-2.226,1.39-3.297 c-19.62-11.318-31.351-33.903-49.614-47.119c-0.537-0.389-1.115,0.028-1.264,0.554c-3.1-7.073-5.99-14.24-8.679-21.493 c22.478,19.419,47.586,34.784,67.081,57.496c0.469,0.545,1.035,0.683,1.57,0.589C110.863,161.011,105.793,168.191,99.593,174.251z M116.823,150.392c-2.527-10.642-17.873-20.021-25.83-25.999C76.111,113.208,60.4,103.11,45.818,91.532 c-0.214-0.17-0.444-0.232-0.672-0.249c-1.85-5.164-3.628-10.359-5.251-15.618c0.389-0.43,0.632-0.965,0.653-1.568 c24.205,23.089,50.522,44.503,77.532,64.212c0.071,0.319,0.2,0.632,0.473,0.896c1.32,1.28,1.904,1.813,2.681,2.229 C119.843,144.461,118.385,147.459,116.823,150.392z M131.669,115.764c-2.54,6.67-5.211,13.605-8.165,20.477 c-28.81-21.125-56.579-43.226-84.049-66.03c-0.903-3.152-1.384-6.299-1.517-9.414c12.421,10.52,27.296,18.863,40.557,28.137 c9.628,6.734,19.184,13.573,28.542,20.677c3.413,2.59,16.511,10.25,17.242,15.183c0.305,2.062,3.032,1.5,3.627,0 c3.488-8.786-29.67-27.24-34.702-30.709C75.078,81.59,56.82,68.812,37.918,57.491c0.111-2.849,0.525-5.658,1.196-8.408 c14.218,12.262,31.248,21.976,46.788,32.202c11.472,7.55,22.141,15.908,32.981,24.326c2.079,1.614,4.125,3.278,6.261,4.814 c1.373,1.006,2.765,1.988,4.171,2.948c0.017,0.544,0.269,1.066,0.828,1.34c0.595,0.291,1.115,0.593,1.619,0.813 C131.734,115.605,131.699,115.687,131.669,115.764z M133.762,110.614c-3.389-3.382-8.246-6.01-11.999-8.736 c-9.926-7.209-19.304-14.826-29.727-21.347c-17.6-11.013-34.623-23.011-52.151-34.094c0.873-2.817,2.046-5.546,3.426-8.185 c9.759,14.48,24.228,24.161,39.07,32.89c17.614,10.36,34.195,21.806,51.434,32.541c0.255,0.159,0.531,0.204,0.808,0.203 c0.029,0.004,0.04,0.03,0.071,0.03c0.034,0,0.046-0.026,0.077-0.032c1.187-0.112,2.278-1.46,1.427-2.583 c-9.746-12.863-27.043-20.401-41-27.727c-19.055-10.002-37.07-20.155-50.662-37.277c-0.032-0.041-0.073-0.056-0.109-0.089 c0.493-0.848,1.072-1.649,1.611-2.472c3.469,3.494,7.307,6.622,11.217,9.609c4.21,3.215,9.803,7.728,15.299,8.32 c1.615,7.49,6.302,14.231,14.662,17.203c7.776,2.765,15.914,1.85,22.549-1.778c6.241,3.545,11.872,8.058,17.47,12.527 c4.255,3.397,9.129,8.837,14.407,10.578c0.563,0.186,1.057,0.027,1.41-0.294C139.923,97.039,136.561,104.025,133.762,110.614z M143.604,88.663c0.01-0.398-0.104-0.802-0.415-1.122c-3.92-4.028-9.571-7.013-14.12-10.3c-5.539-4.003-11.159-8.097-17.143-11.456 c3.212-2.161,5.978-5.004,8.038-8.41c4.94,3.96,9.79,8.037,14.593,12.154c4.072,3.491,7.92,7.759,12.64,10.323 C146.088,82.807,144.867,85.745,143.604,88.663z M135.723,66.132c-4.792-3.716-9.638-7.38-14.571-10.914 c0.795-1.637,1.448-3.373,1.913-5.216c0.396-1.576,0.611-3.145,0.693-4.694c3.099,2.714,6.225,5.397,9.328,8.102 c5.099,4.443,9.967,9.48,15.503,13.359c1.621,1.136,3.29-1.295,2.036-2.639c-4.502-4.825-10.352-8.656-15.554-12.705 c-3.816-2.97-7.567-6.015-11.319-9.058c-0.757-10.731-8.755-19.776-19.794-20.926c-0.115-0.153-0.263-0.292-0.463-0.404 c-4.396-2.447-8.984-4.258-13.235-7.019c-2.746-1.783-5.316-3.804-7.887-5.822c3.299-0.717,6.751-1.113,10.273-1.222 c8.023,6.822,16.376,13.226,24.82,19.523c12.258,9.142,23.378,19.403,35.285,28.851c-0.203,6.981-1.927,14.132-4.382,21.249 C145.198,72.369,139.751,69.255,135.723,66.132z"/></symbol><symbol id="smile-in-message" viewBox="0 0 194.125 194.125"><title>smile-in-message</title><path d="M190.873,12.656c-0.402-0.379-0.846-0.458-1.24-0.367c0.744-0.702,0.927-2.054-0.207-2.781 c-5.987-3.834-13.622-2.213-20.333-1.515c-15.975,1.662-31.45,0.275-47.454-0.661c-17.366-1.015-34.982,1.083-52.393,1.092 C48.706,8.434,28.152,7.2,7.626,8.274c-1.112,0.058-1.538,1.101-1.271,1.896c-0.326,0.676-0.218,1.632,0.485,2.174 c1.431,1.102-0.634,17.142-0.763,19.518C5.328,45.632,4.275,59.386,3.383,73.146c-1.027,15.85-7.628,44.222,0.989,58.824 c0.232,0.394,0.674,0.383,0.982,0.178c0.108,0.033,0.158,0.123,0.284,0.135c7.9,0.679,15.973,0.045,23.907-0.204 c-5.412,16.866-5.004,35.781-3.814,53.22c0.091,1.331,1.443,2.231,2.674,1.535c20.142-11.397,37.983-31.13,43.237-54.08 c0.042-0.186,0.021-0.347,0.014-0.514c38.229-1.212,80.045,7.121,117.518-2.865c0.09,0.003,0.161-0.043,0.251-0.061 c0.078-0.021,0.158-0.034,0.237-0.057c0.092-0.025,0.147-0.078,0.228-0.112c0.024-0.019,0.057-0.019,0.081-0.04 c1.041-0.505,1.083-1.748,0.459-2.514c1.547-26.118,0.498-52.352,2.084-78.491C192.931,41.249,196.767,18.205,190.873,12.656z M188.571,54.564c-1.436,23.659-1.952,47.911-0.571,71.603c-20.479,4.362-41.598,3.115-62.405,3.668 c-17.487,0.465-38.719-6.991-55.15,0.828c-0.889-0.316-1.968-0.04-2.238,1.143c-4.833,21.123-20.747,39.313-39.069,50.454 c-0.874-17.021,0.632-33.509,2.503-50.454c1.367-0.753,1.107-3.228-0.816-3.255c-8.348-0.118-16.875,0.268-25.184,1.075 c-0.154,0.015-0.22,0.12-0.346,0.167c-1.703-7.927-0.215-18.061,0.029-25.841c0.49-15.634,1.631-31.253,2.678-46.857 c0.327-4.874,5.786-38.156,1.609-45.971c32.622,0.879,65.525,1.886,98.091-0.332c13.702-0.933,27.68,1.121,41.354,1.843 c10.895,0.576,28.888-5.8,38.63-0.147c0.455,0.264,0.892,0.292,1.274,0.185c-0.394,0.407-0.582,1.042-0.292,1.685 C193.107,24.176,189.183,44.496,188.571,54.564z"/><path d="M80.967,51.193c-0.249,0.018-0.499,0.097-0.75,0.135c-1.955-0.751-4.224-0.987-5.784,0.712 c-1.423,1.549-1.341,3.876-0.742,5.754c1.211,3.795,5.515,8.313,9.734,5.723c2.436-1.496,3.963-5.217,3.709-7.971 C86.839,52.355,83.867,50.978,80.967,51.193z"/><path d="M88.513,94.528c-1.488-4.02-5.928-4.593-9.407-3.068c-2.832,0.322-5.32,2.733-6.104,5.453 c-1.07,3.708,2,7.262,5.433,8.166C83.886,106.512,90.551,100.031,88.513,94.528z"/><path d="M101.073,39.703c-1.459-0.074-2.491,2.069-1.26,3.043c8.768,6.936,14.825,14.949,17.528,25.961 c2.017,8.215-0.469,20.875-6.415,29.458c-3.423,3.693-7.53,6.437-12.206,7.607c-1.472,0.368-1.125,2.414,0.069,2.674 c0.069,0.933,0.854,1.846,2.068,1.601c4.177-0.841,7.628-3.308,10.461-6.603C131.938,87.677,131.346,41.225,101.073,39.703z"/></symbol><symbol id="compare" viewBox="0 0 195.194 195.194"><title>compare</title><path d="M140.565,12.8c-0.156-1.88-1.48-2.837-2.861-2.93c-0.358-1.107-1.157-2.026-2.428-2.231 c-17.716-2.861-36.386-1.783-54.32-2.237C58.196,4.825,35.34,4.701,12.704,7.386c-1.395,0.166-2.354,0.927-2.957,1.882 c-0.394-0.059-0.81-0.03-1.246,0.216c-13.707,7.719-6.897,44.009-6.175,56.213c2.302,38.902-0.208,77.752-0.217,116.692 c-0.001,3.085,2.699,4.348,5.04,3.915c0.366,0.345,0.829,0.627,1.518,0.723c13.282,1.858,26.877,2.312,40.275,2.509 c8.968,0.131,22.897,1.56,30.043-4.861c1.776-1.598,0.884-4.878-1.427-5.402c-8.814-1.999-19.447,1.184-28.616,1.253 c-12.758,0.097-25.707-1.212-38.416,0.213c0.347-33.632,2.963-67.474,1.312-101.077c-0.637-12.956-1.747-25.87-2.082-38.843 c-0.217-8.421,2.144-17.588,1.983-25.963c0.313,0.065,0.595,0.168,0.965,0.159c20.482-0.482,40.909-0.625,61.395-0.262 c19.767,0.351,40.532,2.926,60.155,0.13c-2.052,24.851-4.266,52.842-0.689,77.396c0.57,3.908,7.29,3.908,7.859,0 C145.1,67.044,142.658,38.153,140.565,12.8z"/><path d="M190.229,112.35c-0.332,0.246-0.651,0.515-0.979,0.765c-2.672-5.764-8.101-10.803-11.63-15.867 c-1.508-2.165-4.046-2.448-6.054-0.781c-17.666,14.669-34.982,29.834-51.8,45.485c-1.53-1.956-3.329-3.749-4.961-5.463 c-3.928-4.126-7.993-8.183-12.35-11.857c-1.137-0.959-2.397-0.781-3.241-0.097c-0.326,0.02-0.655,0.043-1.02,0.186 c-3.514,1.361-6.548,4.153-9.134,6.837c-2.217,2.299-5.353,5.329-6.142,8.54c-0.484,0.12-0.973,0.261-1.474,0.416 c0.041,0.031,0.082,0.062,0.123,0.094c-1.057,0.208-1.975,0.851-2.318,2.101c-0.167,0.608-0.099,1.277,0.125,1.895 c-0.348,0.658-0.431,1.446,0.044,2.205c8.675,13.88,17.713,27.643,27.567,40.717c0.711,0.944,1.644,1.429,2.603,1.578 c1.08,1.084,2.947,1.511,4.508,0.287c15.196-11.912,29.993-24.36,44.563-37.027c12.326-10.716,27.05-21.743,36.073-35.507 C196.476,114.198,192.912,110.365,190.229,112.35z M183.455,117.771c-0.42,0.356-0.822,0.741-1.239,1.104 c-1.208-1.104-2.435-2.188-3.534-3.32c-2.683-2.76-5.036-5.771-6.962-9.07c0.614-0.527,1.228-1.056,1.843-1.582 C176.606,109.366,179.793,113.969,183.455,117.771z M100.81,130.921c0.123-0.085,0.191-0.207,0.299-0.304 c2.35,2.659,4.744,5.277,7.04,7.984c1.739,2.05,3.245,4.409,4.813,6.705c-4.428-4.48-8.649-9.173-12.503-14.138 C100.577,131.087,100.688,131.003,100.81,130.921z M112.6,182.27c-8.954-12.22-17.717-24.697-27.581-36.207 c1.287-0.465,2.414-1.197,3.291-2.496c0.412-0.611,0.4-1.275,0.172-1.869c0.034-0.033,0.064-0.069,0.098-0.103 c3.702,7.771,8.054,15.171,12.769,22.369c3.209,4.9,7.406,12.55,12.838,15.184c0.767,0.373,1.487,0.229,1.989-0.179 C114.985,180.073,113.775,181.153,112.6,182.27z M116.397,178.762c0.448-0.517,0.616-1.293,0.258-2.086 c-2.709-6.004-9.291-11.39-13.297-16.658c-4.768-6.271-9.037-12.929-12.837-19.825c-0.097-0.175-0.214-0.304-0.342-0.398 c0.469-0.566,0.905-1.1,1.299-1.5c0.099-0.101,0.203-0.186,0.302-0.283c0.017,0.036-0.006,0.07,0.017,0.106 c4.554,7.125,10.38,13.298,16.013,19.572c2.91,3.242,5.809,6.491,8.65,9.794c1.798,2.091,3.491,4.554,6.156,5.447 c0.029,0.01,0.063-0.004,0.094,0.004C120.584,174.853,118.496,176.814,116.397,178.762z M124.855,171.025 c-0.908-5.806-8.861-10.929-12.85-14.729c-6.495-6.185-12.809-12.564-18.571-19.443c-0.08-0.095-0.185-0.084-0.278-0.136 c1.745-1.568,3.603-2.939,5.512-4.286c4.878,6.922,10.467,13.276,16.159,19.536c3.985,4.381,9.127,11.573,14.749,14.893 C128.008,168.251,126.42,169.625,124.855,171.025z M133.101,163.754c-3.278-4.459-9.245-8.287-13.391-11.931 c1.985,0.109,3.893-1.512,3.264-3.882c-0.027-0.103-0.074-0.199-0.104-0.301c0.643-0.494,1.26-1.019,1.898-1.517 c1.931,2.021,3.847,4.059,5.848,6.013c2.19,2.139,5.256,6.045,8.479,6.278c0.046,0.005,0.073-0.025,0.116-0.026 C137.172,160.175,135.137,161.965,133.101,163.754z M140.576,157.189c0.093-0.408,0.101-0.842-0.079-1.22 c-0.557-1.18-1.392-1.629-2.453-2.356c-1.741-1.19-3.345-2.592-4.943-3.962c-2.042-1.748-4.018-3.571-5.98-5.409 c2.2-1.738,4.355-3.534,6.527-5.307c2.486,2.66,5.001,5.291,7.676,7.765c1.809,1.672,3.768,3.503,6.036,4.533 C145.098,153.218,142.841,155.206,140.576,157.189z M152.775,146.477c-0.768,0.68-1.544,1.354-2.314,2.033 c-2.682-1.93-5.497-3.631-8.086-5.722c-2.236-1.805-4.37-3.73-6.489-5.674c2.881-2.374,5.698-4.825,8.548-7.236 c2.168,2.432,4.447,4.766,6.896,6.901c2.045,1.783,4.538,3.985,7.348,4.242C156.722,142.868,154.768,144.714,152.775,146.477z M161.428,138.437c-0.224-0.438-0.573-0.819-1.048-1.008c-4.907-1.944-9.53-5.711-13.357-9.743 c2.688-2.289,5.354-4.595,8.031-6.894c1.307,1.536,2.604,3.085,3.919,4.615c2.068,2.41,4.972,6.701,8.34,7.329 C165.351,134.644,163.392,136.55,161.428,138.437z M169.395,130.722c-0.037-0.123-0.013-0.236-0.082-0.361 c-1.6-2.905-5.452-5.153-7.827-7.467c-1.385-1.35-2.734-2.734-4.089-4.114c1.566-1.347,3.135-2.689,4.702-4.036 c2.375,2.434,4.854,4.773,7.383,7.037c1.354,1.213,3.05,3.074,4.923,4.17C172.729,127.533,171.053,129.116,169.395,130.722z M164.525,112.661c1.912-1.643,3.827-3.284,5.739-4.927c1.454,2.998,3.231,5.796,5.262,8.502c1.217,1.622,2.525,3.406,3.944,5.084 c-0.505,0.458-1.021,0.897-1.523,1.357C173.464,120.219,168.69,116.33,164.525,112.661z"/><path d="M35.331,32.36c-1.144,0.112-2.286,0.24-3.429,0.364c-5.242,0.567-5.242,7.582,0,8.149 c1.143,0.124,2.285,0.252,3.429,0.364C41.051,41.797,41.051,31.799,35.331,32.36z"/><path d="M116.439,33.039c-1.449-1.935-3.111-2.626-5.51-2.242c-17.367,2.777-38.347-4.252-54.727,3.159 c-1.062,0.48-2.007,2.074-1.859,3.242c0.07,0.556,0.023,1.731,0.563,2.195c4.933,4.234,19.33,1.57,25.493,1.676 c10.992,0.189,22.238,1.082,33.124-0.861c1.51-0.269,3.148-1.891,3.409-3.408C117.166,35.432,117.325,34.223,116.439,33.039z"/><path d="M40.392,58.37c-4.067,1.132-8.33,1.907-12.458,2.838c-2.699,0.609-2.836,5.065,0,5.575c2.008,0.361,3.94,0.3,5.965,0.117 c2.029-0.184,4.471-0.947,6.494-0.478c2.628,0.61,5.285-1.228,5.285-4.026C45.677,59.688,43.01,57.641,40.392,58.37z"/><path d="M113.303,60.929c-5.816,3.382-19.79,0.058-26.078-0.481c-9.908-0.85-20.712-2.795-30.616-1.284 c-3.277,0.5-3.148,5.853,0,6.465c12.626,2.456,25.691,4.277,38.504,5.349c6.83,0.572,20.923,2.98,23.409-6.038 C119.353,61.926,115.999,59.361,113.303,60.929z"/><path d="M39.171,84.123c-1.468-0.162-3.637,0.521-4.834,0.66c-1.222,0.142-1.912-0.016-2.687-0.064 c-1.175-0.913-3.362-0.113-3.455,1.676c-0.027,0.232-0.026,0.325-0.005,0.313c-0.402,1.159-0.347,2.524,0.651,3.394 c1.627,1.418,3.389,1.755,5.495,1.894c1.862,0.122,4.055,0.215,5.869-0.223c1.677-0.405,2.859-2.064,2.859-3.755 C43.065,85.719,41.279,84.354,39.171,84.123z"/><path d="M116.737,85.187c-6.805-3.07-16.904,0.227-24.465-0.006c-11.001-0.339-22.183-1.666-33.172-0.7 c-4.57,0.402-4.469,6.508,0,7.026c12.091,1.401,24.316,2.903,36.48,3.381c6.735,0.265,18.413,1.463,22.324-5.252 C118.725,88.227,118.356,85.918,116.737,85.187z"/></symbol><symbol id="reviews" viewBox="0 0 195.815 195.815"><title>reviews</title><path d="M195.541,60.377c-0.008-2.023-0.064-4.083-0.107-6.134c0.361-0.524,0.418-1.196-0.031-1.827 c-0.277-10.336-1.057-20.891-2.865-30.955c0.04-0.573-0.058-1.134-0.29-1.657c-0.012-0.057-0.021-0.116-0.031-0.173 c-0.117-0.608-0.576-0.986-1.113-1.136c-0.448-0.28-0.964-0.49-1.622-0.509c-2.292-0.066-4.581-0.155-6.871-0.231 c-0.068-0.1-0.133-0.204-0.201-0.303c-0.455-0.65-1.362-0.342-1.498,0.246c-17.408-0.598-34.796-1.444-52.201-2.191 c-1.47-0.063-3.004-0.152-4.566-0.249c-0.135-0.324-0.287-0.639-0.416-0.966c-0.413-1.044-2.091-0.635-1.719,0.474 c0.042,0.126,0.101,0.241,0.144,0.366c-14.257-0.943-31.417-2.529-44.414,2.142c-0.309-0.367-0.609-0.74-0.918-1.106 c-0.599-0.71-1.859,0.255-1.291,0.996c0.193,0.252,0.381,0.507,0.575,0.759c-0.601,0.248-1.211,0.482-1.791,0.762 c-0.019,0.009-0.029,0.024-0.046,0.034c-0.516-0.053-1.045-0.011-1.542,0.259c-7.907,4.299-5.495,29.733-5.523,36.908 c-0.024,6.085-1.476,26.667,5.217,32.194c-1.006,1.806-0.066,4.871,2.71,5.192c9.641,1.115,19.519,1.566,29.242,1.519 c0.425,0.7,1.146,1.252,2.244,1.348c13.833,1.209,27.902,0.672,41.787,0.611c7.624,5.2,12.211,14.214,20.204,18.854 c1.362,0.791,2.579,0.475,3.366-0.321c1.241,0.514,2.906-0.123,3.059-1.941c0.589-7.03,0.843-14.122,1.663-21.134 c4.287,0.031,8.264-0.976,12.53-2.422c1.452-0.492,2.128-1.664,2.202-2.87C197.365,81.967,195.565,66.752,195.541,60.377z M184.591,24.406c0.943,1.618,2.02,3.512,3.511,4.74c-0.089,2.663-0.109,5.337-0.032,8.018c-2.109-2.275-4.62-4.363-6.621-6.514 c-1.81-1.946-4.018-4.079-5.839-6.342C178.603,24.377,181.596,24.405,184.591,24.406z M173.489,24.244 c1.277,2.37,3.12,4.48,4.789,6.571c2.863,3.588,6.081,8.494,9.967,11.15c0.057,1.216,0.115,2.434,0.178,3.646 c-7.467-7.167-14.956-14.309-22.331-21.592C168.558,24.117,171.022,24.176,173.489,24.244z M163.058,23.896 c0.04,0.088,0.072,0.177,0.14,0.261c7.516,9.456,16.28,19.017,25.504,27.135c0.034,0.778,0.069,1.557,0.096,2.33 c0.046,1.34,0.054,2.68,0.079,4.02c-3.941-5.6-9.297-10.322-14.183-15.042c-3.054-2.949-6.118-5.888-9.145-8.865 c-1.838-1.808-3.657-3.637-5.472-5.468c0.006,0.006-1.549-1.473-2.678-2.513c0.062-0.053,0.1-0.137,0.042-0.217 c-0.577-0.783-0.94-1.441-1.382-1.971C158.392,23.685,160.725,23.794,163.058,23.896z M75.858,86.835 c0.084-2.949-0.831-5.958-1.171-8.891c-0.184-1.593-0.326-3.191-0.453-4.79c2.861,2.228,5.623,4.579,8.357,6.976 c2.779,2.438,5.702,5.667,8.995,7.685C86.335,87.459,81.059,87.276,75.858,86.835z M95.07,88.085 c0.087-0.381,0.023-0.803-0.254-1.099c-3.324-3.554-8.04-6.304-11.855-9.378c-2.881-2.322-5.795-4.673-8.886-6.732 c-0.265-4.08-0.37-8.17-0.417-12.255c0.495,0.497,1.241,1.606,1.48,1.875c1.668,1.882,3.268,3.834,4.866,5.776 c3.277,3.982,6.461,8.037,9.85,11.927c2.896,3.325,6.684,7.209,10.739,10.5C98.759,88.451,96.919,88.246,95.07,88.085z M110.173,90.332c-3.271-3.605-8.899-6.466-12.274-9.15c-4.551-3.619-8.252-8.019-12.067-12.382 c-3.108-3.556-6.949-9.714-11.535-11.461c-0.266-0.101-0.453-0.114-0.661-0.15c-0.003-0.435-0.018-0.871-0.02-1.305 c-0.01-2.384,0.04-4.769,0.117-7.152c4.709,5.488,10.883,11.454,12.09,12.797c4.825,5.365,9.602,10.73,14.271,16.237 c3.067,3.616,7.004,9.22,11.576,12.501C111.172,90.296,110.671,90.299,110.173,90.332z M118.399,89.972 c-0.083-0.087-0.15-0.181-0.256-0.258c-10.849-7.884-18.977-18.688-28.27-28.267c-5.087-5.243-10.241-12.451-15.937-17.536 c0.195-3.527,0.469-7.049,0.828-10.562c0.086-0.848,0.275-1.773,0.5-2.739c6.374,10.518,14.603,19.693,22.93,28.728 c9.034,9.804,17.48,21.022,26.833,30.521C122.817,89.88,120.605,89.907,118.399,89.972z M129.513,89.843 c-3.764-9.507-13.879-17.515-20.835-24.533C97.049,53.576,84.904,41.961,75.905,28.011c0.505-2.058,0.953-4.161,0.828-6.019 c0.888,0.135,1.78,0.229,2.673,0.299c8.674,11.424,17.223,22.941,26.038,34.259c8.422,10.813,17.733,24.45,29.004,33.322 C132.803,89.861,131.159,89.843,129.513,89.843z M140.724,89.909c-9.515-11.187-20.621-21.167-30.104-32.508 c-9.666-11.557-19.014-23.374-28.614-34.985c2.266,0.049,4.544-0.05,6.824-0.181c7.999,14.701,19.046,27.724,30.038,40.227 c7.871,8.953,16.243,18.741,25.271,27.47C142.999,89.923,141.864,89.919,140.724,89.909z M163.372,102.872 c0.217-0.634,0.162-1.379-0.328-1.956c-11.613-13.669-26.23-25.295-38.634-38.332c-12.062-12.678-23.604-25.953-33.386-40.48 c1.863-0.117,3.726-0.237,5.586-0.299c0.449-0.015,0.9-0.011,1.349-0.024c8.145,14.578,19.368,26.819,30.884,38.843 c14.107,14.729,27.114,29.325,39.161,45.813c0.621,0.851,1.556,0.938,2.257,0.592c0.039,0.826,0.062,1.652,0.112,2.48 C167.874,107.463,165.62,105.169,163.372,102.872z M170.133,103.14c-16.627-31.601-49.836-51.873-69.922-81.396 c2.541-0.048,5.083-0.055,7.626-0.04c13.288,27.423,40.189,51.407,62.589,70.722c0.003,0.002,0.006,0.003,0.006,0.003 C170.145,96.007,170.07,99.571,170.133,103.14z M173.937,85.768c-1.38-0.177-2.348,0.817-2.828,1.965 c-20.211-22.515-44.11-40.652-61.035-66.001c5.017,0.059,10.031,0.21,15.042,0.384c5.378,10.888,13.681,20.005,22.1,28.809 c6.416,6.71,12.713,13.249,18.535,20.489c3.272,4.069,7.278,11.449,11.497,14.5C176.169,85.952,175.071,85.913,173.937,85.768z M187.94,78.471c-17.799-16.784-32.525-35.01-47.435-54.528c-0.871-1.141-2.832-0.074-1.973,1.153 c7.119,10.167,14.272,20.351,21.899,30.146c7.337,9.421,15.863,21.723,26.878,27.182c-0.045,0.431-0.121,0.866-0.135,1.295 c-2.211,0.751-4.354,1.418-6.539,1.818c0.093-0.209,0.167-0.429,0.196-0.665c0.062-0.503,0.125-1.006,0.186-1.509 c0.11-0.887-0.563-1.382-1.307-1.455c-0.012-0.018-0.006-0.028-0.019-0.047c-2.338-3.752-1.865-3.029-5.315-6.588 c-5.714-5.896-10.563-12.512-16.327-18.367c-10.682-10.849-22.812-21.385-30.47-34.707c0.375,0.013,0.751,0.023,1.125,0.037 c6.314,0.234,12.631,0.566,18.947,0.9c4.062,10.007,11.546,18.614,18.462,26.748c6.749,7.937,13.955,17.709,22.59,23.699 c0.004,0.003,0.009,0.003,0.013,0.006C188.579,75.21,188.274,76.84,187.94,78.471z M188.883,68.868 c-12.008-15.829-29.854-27.313-38.849-45.607c0.95,0.05,1.901,0.095,2.852,0.145c-0.005,0.181,0.024,0.366,0.152,0.537 c4.673,6.307,10.064,12.004,15.487,17.665c6.198,6.474,12.016,13.625,18.585,19.699c0.547,0.506,1.24,0.571,1.833,0.363 C188.951,64.07,188.935,66.469,188.883,68.868z"/><path d="M132.302,110.497c0.03-0.303,0.015-0.596,0.031-0.896c2.517-1.463,1.957-6.232-1.695-6.279 c-20.955-0.272-42.863-4.235-63.846-1.581c-0.009-0.01-0.018-0.018-0.026-0.025c-0.416-0.396-0.914-0.202-1.128,0.169 c-1.697,0.235-3.391,0.501-5.075,0.832c-0.013-0.082-0.012-0.159-0.031-0.243c-3.153-13.762,4.537-30.294-2.069-43.378 c-0.114-0.226-0.303-0.432-0.517-0.622c1.543-1.489,0.51-4.024-1.695-4.236c-6.933-0.664-14.458,1.054-21.522,1.052 c-8.727-0.003-17.51-0.73-26.218,0.016c-2.542,0.218-3.054,2.932-1.646,4.289C3.911,63.18,3.624,69.969,3.079,74.159 c-1.47,11.307-2.233,22.684-2.728,34.071c-0.468,10.787-0.541,21.655,0.233,32.43c0.286,3.996,0.084,10.677,4.405,12.652 c1.11,0.509,2.434,0.224,3.222-0.551c0.229,0.198,0.493,0.358,0.835,0.407c7.225,1.05,14.553,1.115,21.806,2.012 c-0.553,2.648-0.48,5.446-0.448,8.685c0.047,4.653-0.602,12.845,2.112,16.895c1.136,1.695,3.77,1.861,4.873,0.23 c0.386,0.035,0.778,0.015,1.154-0.149c5.314-2.315,9.079-6.735,12.54-11.231c2.055-2.672,3.943-5.472,5.95-8.179 c1.158-1.56,2.482-2.932,3.59-4.451c0.255,0.033,0.504,0.083,0.786,0.045c22.744-3.062,45.34,2.592,68.117,2.001 c1.992-0.053,3.379-1.557,3.494-3.496c0.819-13.596-2.498-28.199,1.681-41.375C135.36,112.078,133.953,110.73,132.302,110.497z M126.658,116.35c-1.154-1.227-2.429-2.363-3.547-3.452c-1.124-1.092-2.294-2.135-3.496-3.138 c2.353,0.065,4.704,0.166,7.058,0.205C126.752,112.093,126.921,114.189,126.658,116.35z M115.358,109.636 c1.985,1.679,3.883,3.448,5.677,5.338c1.613,1.699,3.019,3.734,4.672,5.445c-0.33,1.734-0.546,3.541-0.659,5.406 c-2.09-2.167-4.363-4.205-6.43-6.285c-3.356-3.376-6.7-6.771-10.101-10.104C110.797,109.521,113.078,109.562,115.358,109.636z M54.135,60.394c0.138,2.269-0.029,10.377-0.173,19.044c-2.807-2.651-5.789-5.145-8.513-7.896 c-3.216-3.249-6.367-6.552-9.659-9.724C41.465,61.96,48.53,62.328,54.135,60.394z M34.601,61.787 c-0.236,0.27-0.309,0.681,0.013,1.022c6.223,6.573,12.06,14.458,19.295,19.979c-0.03,2.042-0.057,4.078-0.076,6.039 c-3.559-3.168-7.809-6.005-10.774-8.548c-6.742-5.78-12.441-11.699-17.654-18.796C28.472,61.614,31.54,61.729,34.601,61.787z M9.046,149.005c-0.216,0.031-0.396,0.116-0.567,0.211c-1.109-3.962-1.656-8.219-1.923-12.573 c1.407,3.716,3.749,6.868,6.497,9.733c0.537,0.56,1.206,1.27,1.951,2.005C13.001,148.515,11.011,148.721,9.046,149.005z M20.265,148.213c-1.584-0.94-3.011-2.128-4.393-3.336c-3.027-2.646-5.799-5.892-7.303-9.655 c-0.392-0.979-1.588-1.004-2.128-0.432c-0.148-3.582-0.085-7.211,0.032-10.813c6.719,9.632,15.65,17.301,24.71,24.827 C27.584,148.417,23.929,148.191,20.265,148.213z M38.081,175.172c-0.201-3.296-0.932-6.793-1.072-9.738 c-0.029-0.604-0.044-1.209-0.067-1.813c0.845,1.156,1.753,2.269,2.695,3.347c0.71,0.813,1.826,2.253,3.062,3.435 C41.26,172.07,39.75,173.673,38.081,175.172z M44.658,168.005c-0.935-0.739-1.831-1.539-2.691-2.343 c-1.929-1.807-3.718-3.809-5.174-6.022c-0.038-1.139-0.077-2.277-0.127-3.417c-0.061-1.409-0.276-2.405-0.585-3.35 c4.085,3.406,8.117,6.853,11.907,10.506C46.917,164.988,45.809,166.522,44.658,168.005z M50.12,159.99 c-14.212-13.603-32.289-23.378-43.515-39.872c0.182-4.098,0.409-8.116,0.52-11.888c0.001-0.034,0.004-0.068,0.005-0.104 c5.421,7.642,11.817,14.52,18.435,21.22c8.665,8.774,17.499,18.75,27.243,26.292c0.039,0.03,0.086,0.039,0.126,0.066 C51.918,157.076,50.996,158.555,50.12,159.99z M61.671,151.518c-0.697-0.826-1.79-1.318-2.83-0.896 c-1.364,0.553-2.562,1.429-3.65,2.482c-5.78-8.225-14.716-14.747-22.041-21.527c-9.186-8.504-18.153-17.311-25.844-27.19 c0.129-3.367,0.322-6.731,0.523-10.097c8.195,10.441,17.682,19.729,27.448,28.714c10.029,9.227,20.119,19.597,31.091,27.817 C64.802,151.015,63.236,151.238,61.671,151.518z M71.111,150.346c-0.025-0.04-0.028-0.084-0.057-0.123 c-7.898-10.607-20.266-18.557-30.404-26.909c-11.697-9.637-23.016-19.649-32.702-31.33c0.29-4.445,0.645-8.886,1.094-13.317 c0.038-0.372,0.096-0.75,0.146-1.125c11.552,14.078,25.962,25.85,39.456,37.995c12.07,10.865,22.258,22.672,33.115,34.49 C78.209,150.007,74.66,150.07,71.111,150.346z M86.583,150.098c-6.09-13.822-21.24-24.778-32.369-34.353 c-15.022-12.922-30.198-25.376-43.973-39.664c-0.26-0.27-0.552-0.31-0.809-0.23c0.83-5.032,2.327-10.27,2.36-15.181 c0-0.011-0.005-0.021-0.005-0.032c3.798,0.335,7.612,0.586,11.427,0.773c1.64,7.282,9.373,13.488,14.52,18.328 c3.488,3.279,7.095,6.43,10.641,9.644c1.811,1.641,3.55,3.661,5.43,5.429c0.009,4.643,0.11,8.221,0.386,9.41 c0.095,0.409,0.251,0.748,0.441,1.042c-13.623-13.485-26.439-29.511-41.385-41.07c-0.364-0.282-0.89,0.06-0.657,0.506 c8.542,16.318,26.237,30.196,39.143,43.06c14.033,13.988,27.855,30.06,43.237,42.746 C92.173,150.335,89.378,150.186,86.583,150.098z M100.527,150.867c-11.649-15.925-28.82-29.247-43.057-42.801 c-0.151-0.145-0.299-0.301-0.45-0.445c0.115,0.02,0.215,0.062,0.341,0.063c4.305,0.039,8.605,0.168,12.906,0.291 c12.698,14.282,26.203,27.008,36.668,43.337C104.798,151.167,102.662,151.015,100.527,150.867z M111.09,151.572 c-7.001-17.426-23.237-30.805-37.428-43.521c3.579,0.116,7.156,0.26,10.734,0.404c12.709,13.846,25.301,27.481,35.24,43.511 C116.784,151.876,113.936,151.745,111.09,151.572z M124.463,152.051c-9.524-16.586-23.119-30.499-37.075-43.479 c2.233,0.093,4.465,0.188,6.697,0.284c-0.029,0.277,0.041,0.56,0.286,0.781c6.427,5.829,12.036,12.263,17.216,19.22 c3.754,5.043,6.648,12.521,11.414,16.545c1.094,0.924,2.534,0.036,2.305-1.343c-1.027-6.165-7.357-12.395-11.136-17.195 c-5.122-6.51-10.829-12.749-17.352-17.893c2.649,0.112,5.3,0.21,7.949,0.316c3.54,3.846,7.075,7.695,10.553,11.598 c3.063,3.439,6.011,7.581,9.641,10.535c0.144,7.123,1.082,14.523,1.141,20.66C125.555,152.082,125.01,152.054,124.463,152.051z"/></symbol><symbol id="download" viewBox="0 0 193.042 193.041"><title>download</title><path d="M169.304,89.151c-6.801-1.759-15.093-0.611-22.069-0.499c-8.445,0.136-17.041,0.607-25.335,2.364 c-0.006-0.009,0.001-0.018-0.006-0.027c-0.072-0.095-0.156-0.178-0.229-0.273c-0.862-12.003-1.052-24.009-1.098-36.016 c0.025-0.085,0.016-0.163-0.001-0.255c-0.062-17.233,0.171-34.467-0.811-51.693c-0.013-0.228-0.146-0.352-0.24-0.514 c-0.166-0.729-0.711-1.342-1.687-1.308c-15.908,0.561-31.81-0.561-47.713-0.202c-0.561-1.095-2.458-0.922-2.577,0.299 c-0.772,0.517-0.704,1.667,0.174,2.084c2.521,21.509-0.718,43.315-0.364,64.847c-0.181,0.09-0.262,0.38-0.043,0.538 c0.018,0.013,0.034,0.027,0.052,0.04c0.158,8.102,0.822,16.165,2.528,24.156c-0.106-0.027-0.148-0.114-0.268-0.124 c-0.167-0.014-0.339-0.037-0.508-0.053c-0.005-0.004-0.009-0.009-0.014-0.014c-0.036-0.034-0.068,0.013-0.108,0.001 c-14.305-1.35-31.629-7.348-45.652-2.788c-0.626,0.203-0.826,0.947-0.379,1.433c0.064,0.069,0.128,0.139,0.191,0.208 c0.111,0.121,0.268,0.18,0.43,0.194c-0.169,0.239-0.258,0.531-0.062,0.879c19.836,35.174,45.991,69.935,72.951,100.067 c0.857,0.957,2.007,0.529,2.555-0.308c21.275-14.171,32.078-37.139,45.951-57.792c8.649-12.879,19.503-27.643,25.256-42.054 c0.156-0.391,0.052-0.716-0.133-0.998C170.57,90.592,170.311,89.412,169.304,89.151z M73.588,33.961 c0.055-2.605,0.063-5.202,0.006-7.787c11.532,15.4,29.574,25.526,43.216,38.997c0.082,2.77,0.108,5.543,0.243,8.309 C105.002,58.471,87.967,46.73,73.588,33.961z M117.143,75.598c0.04,0.746,0.107,1.49,0.151,2.236 C105.78,63.436,87.366,53.633,73.528,42.018c-0.085-0.071-0.177-0.08-0.267-0.086c0.112-2.253,0.248-4.511,0.308-6.755 C87.797,48.889,102.446,62.434,117.143,75.598z M100.771,48.793c-9.569-7.303-19.808-14.282-27.201-23.94 c-0.012-0.015-0.03-0.012-0.042-0.025c-0.055-1.794-0.143-3.583-0.268-5.364c12.415,15.054,27.698,27.768,43.43,39.243 c0.021,1.291,0.014,2.583,0.045,3.873C112.692,57.041,106.011,52.793,100.771,48.793z M116.647,52.614 c0.01,1.321-0.001,2.642,0.017,3.963c-15.374-11.834-30.335-23.966-43.511-38.26c-0.172-2.157-0.433-4.299-0.732-6.433 C84.653,27.596,101.353,39.909,116.647,52.614z M72.339,11.165c-0.301-2.036-0.728-4.049-1.175-6.058 c9.426,8.738,19.686,16.506,28.894,25.491c4.233,4.132,8.854,8.077,13.4,11.864c1.082,0.901,1.994,2.401,3.213,3.228 c-0.002,1.511-0.041,3.022-0.034,4.532C102.699,36.358,85.138,26.405,72.339,11.165z M73.216,42.914 c14.36,13.012,30.426,23.614,44.238,37.267c0.131,1.996,0.239,3.994,0.406,5.987c-13.102-14.995-30.44-25.766-44.812-39.541 C73.122,45.387,73.152,44.154,73.216,42.914z M117.298,4.581c-0.041,1.792-0.062,3.592-0.09,5.389 c-2.677-2.214-6.014-3.821-9.217-5.292C111.094,4.692,114.196,4.676,117.298,4.581z M105.281,4.649 c0.015,0.009,0.012,0.026,0.028,0.035c4.141,2.17,7.907,4.723,11.868,7.147c-0.016,1.009-0.033,2.016-0.051,3.024 c-1.055-0.453-2.327-1.34-2.835-1.63c-2.028-1.156-3.977-2.459-5.921-3.752c-2.367-1.575-4.68-3.228-7.004-4.865 C102.671,4.631,103.977,4.634,105.281,4.649z M91.041,4.333c0.023,0.03-0.016,0.073,0.027,0.095 c4.798,2.439,9.18,5.647,13.515,8.815c3.694,2.7,7.399,6.269,11.661,8.034c0.507,0.21,0.959-0.586,0.539-0.926 c-7.334-5.942-15.98-11.982-24.604-15.971c2.343,0.085,4.686,0.118,7.029,0.173c3.854,2.709,7.628,5.531,11.517,8.192 c1.164,0.797,4.104,3.316,6.376,3.748c-0.065,4.085-0.149,8.162-0.204,12.249c-8.65-9.807-21.254-18.616-32.628-24.684 C86.526,4.159,88.783,4.248,91.041,4.333z M83.922,4.044c-0.14,0.087-0.221,0.253-0.035,0.358 c12.493,7.072,21.991,17.145,32.799,26.332c0.056,0.047,0.117,0.027,0.176,0.056c-0.025,2.089-0.086,4.172-0.104,6.262 c-2.283-0.964-5.371-4.139-6.673-5.165c-4.302-3.392-8.501-6.915-12.682-10.456c-6.676-5.653-13.406-11.329-19.704-17.405 c-0.218-0.211-0.547,0.117-0.333,0.332c7.386,7.448,15.35,14.38,23.236,21.287c3.811,3.339,7.648,6.673,11.673,9.755 c1.129,0.864,2.82,2.513,4.467,3.049c-0.013,1.656-0.048,3.311-0.054,4.966c-1.306-1.982-4.524-4.086-5.867-5.228 c-4.193-3.564-8.361-7.252-12.333-11.057c-8.629-8.267-18.611-14.97-27.503-22.948c-0.057-0.244-0.083-0.493-0.143-0.736 C75.201,3.644,79.561,3.85,83.922,4.044z M98.708,189.854c-26.927-30.294-50.807-64.896-73.655-98.321 c-0.127-0.185-0.298-0.255-0.467-0.314c0.396-0.167,0.792-0.334,1.188-0.501c0.063-0.017,0.065-0.079,0.082-0.13 c0.512,1.135,1.458,1.47,2.812,1.051c13.607,16.945,24.299,36.012,38.206,52.702c11.769,14.123,27.476,24.824,36.028,41.5 c0.016,0.031,0.051,0.03,0.07,0.057C101.56,187.226,100.192,188.594,98.708,189.854z M103.887,185.048 c-5.833-13.833-18.411-24.132-28.74-34.574c-17.496-17.688-29.638-39.79-45.318-59.023c1.798,0.017,3.594,0.086,5.385,0.246 c0.248,0.016,0.493,0.068,0.742,0.088c18.755,33.381,48.075,59.425,72.41,88.638C106.894,181.984,105.436,183.56,103.887,185.048z M109.205,179.553c-22.791-30.438-51.74-55.396-72.209-87.646c1.851,0.178,3.695,0.439,5.535,0.717 c7.564,15.453,19.921,27.658,31.875,39.808c13.48,13.7,26.323,28.062,38.347,43.059 C111.583,176.854,110.426,178.233,109.205,179.553z M113.709,174.395c-21.792-27.632-53.15-50.849-70.115-81.622 c1.656,0.262,3.307,0.554,4.955,0.845c20.285,27.8,46.188,50.806,67.721,77.595C115.418,172.276,114.585,173.354,113.709,174.395z M117.167,170.1c-20.816-26.8-46.05-49.702-67.189-76.234c1.41,0.254,2.835,0.521,4.264,0.778 c-0.123,0.123-0.16,0.316,0.014,0.468c23.892,20.74,38.229,54.76,66.134,70.605C119.307,167.171,118.287,168.678,117.167,170.1z M121.167,164.656c-26.41-19.205-40.887-49.558-66.214-69.885c2.592,0.457,5.207,0.844,7.821,1.032 c20.684,21.401,39.432,44.72,60.743,65.491C122.727,162.409,121.976,163.556,121.167,164.656z M124.391,160.042 c-20.094-21.369-39.118-43.962-60.377-64.188c1.874,0.083,3.746,0.082,5.605-0.143c0.487-0.059,0.816-0.281,1.052-0.559 c9.759,11.024,18.94,22.546,28.594,33.663c8.148,9.383,17.328,20.175,28.601,26.081 C126.711,156.614,125.577,158.348,124.391,160.042z M128.812,153.49c-22.614-16.492-37.874-39.75-57.783-59.063 c0.034-0.216,0.03-0.438-0.02-0.654c0.634,0.023,1.286-0.331,1.202-1.073c-0.203-1.799-0.358-3.607-0.474-5.422 c17.848,22.243,38.534,42.554,59.293,62.021c0.116,0.109,0.242,0.121,0.365,0.14C130.525,150.784,129.698,152.155,128.812,153.49z M132.016,148.464c-0.024-0.035-0.01-0.073-0.042-0.108c-19.925-21.106-41.138-40.765-60.305-62.601 c-0.128-2.466-0.167-4.948-0.171-7.437c19.787,23.053,44.299,41.441,63.961,64.678 C134.311,144.819,133.183,146.651,132.016,148.464z M136.323,141.625c-18.714-24.272-44.287-42.098-64.827-64.721 c0.01-1.695,0.048-3.395,0.1-5.097c14.343,11.363,26.074,25.38,39.317,37.998c7.255,6.911,15.464,12.71,22.773,19.569 c1.17,1.099,2.231,2.36,3.328,3.528c0.944,1.008,1.884,2.022,2.817,3.042C138.656,137.838,137.511,139.731,136.323,141.625z M141.101,133.889c-5.931-10.199-20.742-18.264-28.835-25.438c-13.92-12.34-25.455-26.901-40.631-37.69 c0.091-2.638,0.229-5.284,0.382-7.934c18.118,27.224,46.06,47.046,72.129,66.13C143.127,130.602,142.118,132.243,141.101,133.889z M146.92,124.463c-0.618,1.019-1.261,2.041-1.891,3.062c-25.705-19.984-53.86-39.058-72.88-65.985 c-0.016-0.022-0.04-0.019-0.058-0.037c0.091-1.512,0.193-3.026,0.292-4.54c14.177,14.425,29.297,27.879,44.386,41.335 c9.09,8.107,19.034,20.862,30.252,25.875c0.022,0.012,0.04-0.003,0.062,0.005C147.032,124.27,146.975,124.375,146.92,124.463z M147.674,123.159c-0.016-0.014-0.013-0.034-0.031-0.047c-11.973-8.675-22.545-20.062-33.688-29.802 c-13.876-12.127-27.521-24.508-41.281-36.765c-0.089-0.079-0.179-0.031-0.262,0.007c0.191-2.903,0.382-5.805,0.563-8.707 c13.628,14.962,31.252,25.69,45.069,40.556c0.086,0.953,0.143,1.908,0.237,2.86c0.048,0.486,0.271,0.85,0.563,1.121 c-0.184,0.78,0.195,1.722,1.145,1.608c0.871-0.105,1.742-0.173,2.613-0.266c9.134,7.712,18.213,16.561,28.622,22.458 C149.957,118.791,148.769,121.207,147.674,123.159z M151.714,115.176c-5.861-4.033-11.499-8.308-17-12.848 c-3.55-2.93-7.157-6.155-11.082-8.707c2.154-0.215,4.311-0.324,6.465-0.476c6.647,7.546,14.511,13.964,22.737,19.725 C152.457,113.646,152.079,114.423,151.714,115.176z M153.37,111.775c-7.782-5.938-15.554-11.749-22.491-18.688 c2.379-0.16,4.76-0.288,7.143-0.4c4.979,5.667,11.463,10.06,17.928,13.993C155.061,108.372,154.199,110.087,153.37,111.775z M156.599,105.466c-5.931-4.211-12.301-7.594-17.448-12.839c1.946-0.085,3.896-0.131,5.848-0.178 c2.296,2.395,4.618,4.751,7.159,6.893c1.663,1.402,3.59,2.99,5.676,3.938C157.419,104.006,157,104.719,156.599,105.466z M158.665,101.806c-2.144-1.312-4.34-2.495-6.358-4.095c-2.09-1.655-4.049-3.471-5.987-5.303c0.305-0.006,0.609-0.023,0.914-0.028 c1.856-0.03,3.806,0.046,5.779,0.138c2.319,2.258,4.894,4.451,7.596,6.217C159.95,99.718,159.298,100.737,158.665,101.806z M161.639,97.273c-2.14-1.595-4.365-3.083-6.531-4.659c3.608,0.172,7.269,0.309,10.724-0.087 C164.38,93.774,162.987,95.418,161.639,97.273z"/></symbol><symbol id="giftbox" viewBox="0 0 188.558 188.558"><title>giftbox</title><path d="M185.975,66.295c1.405-1.681,0.868-4.792-1.593-5.387c-13.578-3.277-29.998-1.736-43.923-1.711 c-5.255,0.009-12.495-0.466-19.293,0.182c4.317-2.093,8.423-4.606,12.138-7.56c10.111-8.039,14.912-27.873,4.941-38.039 c-15.065-15.359-35.78,5.314-46.498,24.189c-4.59-17.832-17.45-36.585-34.749-29.105c-12.102,5.231-13.217,22.842-8.8,32.998 c3.644,8.381,12.707,14.757,22.283,17.83C48.5,57.32,26.376,56.958,4.272,55.941c-2.173-0.1-3.998,1.893-3.993,3.993 c0.024,10.572-2.062,24.145,4.815,33.101c0.18,0.233,0.392,0.423,0.624,0.57C5.08,93.851,4.439,94.077,3.8,94.344 c-2.103,0.881-1.35,3.807,0.946,3.429c12.722-2.095,25.392-2.059,38.054-1.264c0.2,0.048,0.388,0.054,0.572,0.035 c13.818,0.892,27.626,2.668,41.485,3.585c1.657,0.11,3.642-1.31,3.925-2.989c1.55-9.19,4.83-22.073,2.063-31.144 c-0.078-0.257-0.212-0.441-0.325-0.653c0.392,0.138,0.81,0.244,1.283,0.27c3.894,0.214,7.798-0.021,11.652-0.617 c-0.576,0.715-0.987,1.493-1.325,2.299c-0.474,0.33-0.75,0.896-0.501,1.458c-0.781,2.9-0.602,6.146-0.706,9.199 c-0.209,6.053-0.087,12.099,0.684,18.105c0.391,3.048,3.907,3.418,5.067,1.12c12.37-0.865,24.642-1.989,37.058-2.139 c12.771-0.154,24.509,2.989,36.992,4.209c1.152,0.112,1.938-0.345,2.432-1.034c0.612-0.264,1.132-0.738,1.346-1.497 c1.595-5.668,3.009-11.285,3.683-17.144C188.638,75.613,189.285,69.284,185.975,66.295z M9.329,92.321 c0.042-0.312,0.032-0.649-0.091-1.034c-2-6.271-1.948-13.19-1.582-20.006c1.435,2.992,3.292,5.771,5.339,8.415 c2.161,2.789,4.906,7.041,7.993,9.857C17.086,90.175,13.199,91.061,9.329,92.321z M26.025,88.904 c-1.949-3.425-6.27-6.394-8.865-9.209c-3.671-3.983-7.006-8.37-9.176-13.36c-0.008-0.02-0.024-0.028-0.033-0.046 c0.045-0.725,0.092-1.45,0.132-2.166c0.321,0.016,0.642,0.029,0.963,0.046c4.007,5.867,9.036,10.992,14.162,15.881 c2.823,2.691,5.765,5.65,8.839,8.449C30.037,88.583,28.027,88.703,26.025,88.904z M39.515,88.426 c-3.906-3.307-8.34-6.243-12.112-9.399c-5.411-4.526-10.416-9.386-14.997-14.695c3.739,0.18,7.481,0.344,11.222,0.507 c0.069,0.164,0.136,0.329,0.266,0.484c5.138,6.144,10.777,11.76,16.769,17.069c2.146,1.902,4.63,4.291,7.283,6.406 C45.125,88.619,42.313,88.475,39.515,88.426z M57.261,89.541c-4.437-4.261-10.547-7.456-15.233-11.44 c-4.78-4.064-9.295-8.473-13.599-13.051c3.533,0.156,7.065,0.328,10.596,0.506c0.013,0.442,0.185,0.888,0.623,1.216 c6.027,4.521,11.453,9.532,16.804,14.82c2.849,2.814,5.796,6.003,9.01,8.743C62.72,90.063,59.981,89.792,57.261,89.541z M74.537,91.113c-5.216-4.98-11.459-9.098-16.898-13.89c-4.569-4.024-9.172-7.992-14.184-11.435 c5.346,0.295,10.686,0.663,16.02,1.104c2.388,4.84,5.933,9.058,9.693,12.896c3.058,3.123,7.005,7.207,11.209,9.709 C79.232,90.815,77.483,91.214,74.537,91.113z M82.689,79.385c-0.142,1.788-0.298,3.24-0.474,4.548 c-2.906-2.143-6.057-4.083-8.736-6.373c-3.621-3.096-7.034-6.455-9.797-10.312c6.242,0.579,12.471,1.297,18.68,2.245 c0.387,0.059,0.751,0.057,1.103,0.026C82.886,72.754,82.945,76.171,82.689,79.385z M61.943,45.334 C52.99,38.154,51.828,9.277,67.98,16.622c11.959,5.438,19.306,25.946,16.969,38.021c0.012,0.001,0.024,0.003,0.036,0.005 c-0.045,0.25-0.089,0.5-0.123,0.741C76.208,54.243,68.84,50.867,61.943,45.334z M87.377,63.68 c-0.327-0.971-1.109-1.749-2.393-2.074c0.42-0.033,0.85-0.047,1.261-0.099c0.572-0.072,1.03-0.273,1.431-0.523 c-0.02,0.951,0.241,1.915,0.765,2.723C88.093,63.642,87.734,63.634,87.377,63.68z M180.383,67.984 c-0.655,3.558,0.612,7.925,0.453,11.587c-0.046,1.072-0.131,2.145-0.2,3.218c-2.105-3.231-5.817-6.009-8.464-8.649 c-1.943-1.938-3.922-3.847-5.97-5.675C171.031,68.644,175.825,68.609,180.383,67.984z M93.045,57.059 c0.014-0.059,0.04-0.108,0.052-0.17c0.108-0.562,0.198-1.147,0.27-1.753c2.118-13.543,20.027-39.682,35.654-37.562 c8.354,1.132,5.69,17.336,3.823,21.456c-2.493,5.505-8.333,9.028-13.329,11.828C111.752,55.211,101.966,57.33,93.045,57.059z M107.46,91.718c0.329-3.916,0.476-7.841,0.699-11.775c0.074-1.294,0.253-2.612,0.436-3.936c1.806,1.978,3.578,3.988,5.336,6.011 c2.002,2.304,4.104,5.153,6.484,7.541C116.065,90.203,111.734,90.909,107.46,91.718z M126.429,88.725 c-2.808-3.394-6.864-6.349-9.813-9.393c-2.474-2.554-4.951-5.085-7.538-7.5c0.104-1.533,0.082-3.047-0.23-4.512 c1.385,0.349,2.84,0.595,4.34,0.773c5.063,4.578,9.868,9.43,14.872,14.071c1.596,1.479,3.73,3.86,6.047,5.758 C131.546,88.151,128.985,88.411,126.429,88.725z M148.292,87.211c-2.297,0.009-4.604,0.091-6.912,0.205 c-0.933-1.32-2.358-2.145-3.715-3.106c-2.715-1.923-5.264-4.088-7.814-6.219c-3.867-3.233-7.718-6.488-11.627-9.67 c2.556,0.06,5.191-0.027,7.834-0.169c-0.046,0.479,0.094,0.962,0.562,1.325c5.21,4.044,10.247,8.297,15.355,12.467 c2.004,1.636,4.134,3.475,6.375,5.167C148.332,87.211,148.312,87.211,148.292,87.211z M157.356,87.257 c-4.07-3.044-8.743-5.513-12.794-8.565c-4.682-3.528-9.154-7.312-13.915-10.729c4.385-0.312,8.653-0.646,12.52-0.673 c5.374,4.514,10.331,9.452,15.371,14.334c1.942,1.881,3.937,4.016,6.028,6.066C162.162,87.452,159.737,87.315,157.356,87.257z M174.323,89.552c-4.34-4.471-9.972-8.29-14.518-12.377c-3.809-3.425-7.775-6.668-11.839-9.784 c3.946,0.172,8.051,0.5,12.188,0.768c3.09,2.916,6.036,5.95,8.871,9.128c2.747,3.079,5.504,7.615,9.183,9.583 c0.768,0.411,1.544,0.349,2.154,0.008c-0.133,1.674-0.271,3.347-0.403,5.021C178.2,90.924,176.304,90.166,174.323,89.552z"/><path d="M86.241,130.141c-0.024-6.191-0.47-12.367-1.671-18.481c-0.344-1.753-2.192-2.939-3.883-2.957 c-20.567-0.212-43.198-4.521-62.575,4.337c-2.069,0.945-1.632,3.591-0.154,4.766c-4.986,19.071-2.694,39.332-2.602,58.835 c0.011,2.4,1.907,4.051,4.198,4.198c18.523,1.193,37.039,0.065,55.575-0.067c1.16-0.008,2.054-0.42,2.709-1.038 c1.793,0.729,4.245-0.016,4.788-2.176c2.373-9.447,2.022-20.258,2.815-29.97c0.44-5.387,0.761-10.792,0.79-16.189 C86.397,131.012,86.423,130.568,86.241,130.141z M77.897,122.391c-0.549-0.471-1.104-0.938-1.627-1.424 c-1.59-1.479-3.085-3.041-4.569-4.614c1.86,0.11,3.737,0.245,5.572,0.312C77.563,118.567,77.751,120.478,77.897,122.391z M23.668,172.651c-0.108-4.912-0.289-9.81-0.471-14.701c3.081,4.503,6.923,8.693,10.477,12.507 c0.812,0.871,1.633,1.729,2.499,2.522C32.004,172.944,27.837,172.852,23.668,172.651z M56.949,172.754 c-0.094-0.115-0.182-0.223-0.228-0.281c-2.737-3.484-5.936-6.114-9.275-9.002c-8.026-6.941-15.148-14.907-21.189-23.623 c-0.959-1.385-3.178-0.147-2.288,1.337c5.205,8.684,11.762,16.238,18.938,23.349c2.83,2.804,5.655,5.387,8.206,8.306 c-2.515,0.039-5.03,0.093-7.544,0.111c0-0.313-0.026-0.628-0.103-0.941c-0.321-1.286-1.844-1.503-2.747-0.895 c-0.535-0.406-1.071-0.809-1.589-1.235c-2.34-1.929-4.47-4.124-6.567-6.309c-3.296-3.436-6.908-7.079-9.569-11.124 c-0.338-9.475-0.554-18.939-0.205-28.447c14.252,17.809,36.896,29.04,48.649,48.561C66.608,172.604,61.778,172.667,56.949,172.754 z M77.388,147.588c-0.506,6.888-2.038,14.476-2.109,21.722c-3.859-7.744-13.097-14.37-18.746-19.3 c-11.306-9.865-24.217-19.072-33.506-31.049c0.031-0.51,0.037-1.019,0.071-1.529c1.143-0.316,2.295-0.594,3.453-0.842 c5.926,8.613,15.138,15.801,22.663,22.751c5.601,5.173,12.493,14.064,19.909,16.7c1.465,0.52,2.583-1.27,1.909-2.484 c-3.489-6.297-12.21-11.242-17.534-15.837c-8.059-6.955-16.095-14.027-23.401-21.784c2.695-0.427,5.432-0.655,8.182-0.811 c-1.292,2.458,10.631,12.868,11.837,14.057c4.698,4.634,9.473,9.193,14.338,13.652c2.615,2.396,6.826,7.699,10.676,7.814 c1.059,0.032,2.185-1.194,1.731-2.272c-1.219-2.892-5.031-4.795-7.389-6.72c-4.236-3.459-8.351-7.069-12.446-10.693 c-5.612-4.966-12.392-12.352-18.241-15.078c0.519,0.242,0.88-0.413,0.44-0.752c-0.023-0.022-0.053-0.032-0.078-0.052 c4.766-0.227,9.594-0.12,14.425,0.124c3.461,4.952,7.407,9.536,11.647,13.86c3.342,3.409,7.84,8.241,12.677,10.947 C77.753,142.543,77.572,145.071,77.388,147.588z M78.128,134.684c-3.091-2.146-6.224-4.25-9.065-6.787 c-4.273-3.813-8.325-8.013-11.982-12.488c3.523,0.218,7.038,0.479,10.528,0.717c1.717,2.082,3.537,4.086,5.367,6.053 c1.636,1.758,3.345,3.658,5.173,5.413C78.203,129.953,78.202,132.318,78.128,134.684z"/><path d="M172.43,143.856c-0.679-7.404-1.012-17.009-5.036-23.505c0.395-0.174,0.771-0.364,1.107-0.594 c1.572-1.075,2.471-3.799,0.67-5.202c-3.143-2.448-7.466-2.146-11.281-2.602c-8.94-1.068-17.877-2.1-26.855-2.784 c-2.359-0.181-5.461-0.52-8.813-0.737c-0.105-0.139-0.218-0.269-0.323-0.408c-0.604-0.804-1.782-0.444-1.993,0.276 c-4.158-0.175-8.553-0.071-12.379,0.83c-0.475-0.213-1.035-0.044-1.307,0.325c-3.523,1.044-6.44,2.87-8.036,5.939 c-6.044,11.625-2.66,30.206-1.508,42.553c0.221,2.373,1.246,24.836,7.667,19.933c0.401,1.004,1.303,1.808,2.746,1.863 c21.287,0.817,42.532-0.378,63.635-3.232c1.807-0.244,3.084-2.368,3.075-4.039C173.749,162.909,173.302,153.382,172.43,143.856z M160.811,121.331c-0.062,2.885,0.295,5.829,0.792,8.784c-0.171-0.178-0.348-0.356-0.513-0.531 c-3.111-3.312-6.27-6.493-9.741-9.391C154.539,120.772,157.84,121.264,160.811,121.331z M147.561,119.47 c-0.091,0.382-0.031,0.79,0.318,1.094c3.588,3.127,6.896,6.534,10.06,10.085c1.765,1.98,3.308,4.359,4.993,6.562 c0.349,1.837,0.674,3.663,0.905,5.47c-2.973-2.666-5.736-5.578-8.503-8.451c-5.102-5.294-9.948-10.854-15.123-16.079 C142.14,118.374,144.723,118.905,147.561,119.47z M137.188,117.79c6.625,7.067,12.436,14.86,18.744,22.203 c1.76,2.048,4.98,6.594,8.465,9.065c0.185,2.282,0.41,4.562,0.532,6.848c-11.389-13.457-24.383-25.581-35.883-39.058 C132.237,117.167,135.106,117.531,137.188,117.79z M119.065,172.899c-1.263-0.555-2.372-1.83-3.292-2.744 c-2.922-2.903-5.56-6.125-8.22-9.267c-0.242-0.285-0.614-0.233-0.871-0.038c-0.582-0.648-0.931-1.256-0.935-2.272 c0-0.067-0.105-0.067-0.104,0c0.005,1.138,0.32,1.666,0.974,2.363c-0.197,0.202-0.305,0.485-0.104,0.749 c2.944,3.884,5.949,7.726,9.167,11.388c-2.865,0.154-5.73,0.32-8.594,0.458c-0.386,0.019-0.7,0.129-1.011,0.242 c0.617-5.738-1.644-15.196-1.869-18.458c-0.194-2.806-0.422-5.7-0.608-8.636c4.376,6.472,10.21,12.174,15.604,17.579 c1.675,1.677,4.84,5.428,8.223,8.107C124.638,172.555,121.853,172.74,119.065,172.899z M134.355,171.882 c-11.759-7.885-23.819-18.853-31.043-31.077c-0.092-2.688-0.072-5.376,0.032-8.046c6.371,6.562,12.417,13.455,18.46,20.305 c5.091,5.771,10.083,13.128,16.061,18.52C136.695,171.675,135.527,171.795,134.355,171.882z M143.19,171.129 c-4.735-6.782-11.516-12.657-17.067-18.646c-7.306-7.877-14.694-15.694-22.604-22.97c0.269-3.268,0.745-6.48,1.573-9.561 c7.835,9.54,16.217,18.712,24.384,27.928c4.945,5.581,9.915,11.14,14.979,16.614c1.707,1.845,3.944,4.887,6.67,5.339 c1.384,0.229,2.907-1.532,1.544-2.651c-7.988-6.556-15.128-16.019-22.282-23.566c-8.005-8.446-15.887-17.009-23.848-25.494 c0.966-0.66,2.393-1.104,4.071-1.408c8.153,11.227,17.488,21.739,26.657,32.051c4.481,5.04,12.065,15.682,19.903,20.991 C152.515,170.262,147.855,170.726,143.19,171.129z M165.286,168.818c-10.261-6.232-18.89-16.555-27.083-25.03 c-8.531-8.825-16.944-17.92-24.747-27.449c3.561-0.285,7.822-0.128,11.904,0.186c5.4,7.206,11.256,14.074,17.141,20.882 c6.61,7.649,13.535,17.119,22.253,22.348c0.12,0.072,0.235,0.1,0.351,0.135c0.119,2.973,0.211,5.947,0.257,8.922 C165.337,168.812,165.312,168.814,165.286,168.818z"/></symbol></svg>